<svg id="圖層_1" data-name="圖層 1" xmlns="http://www.w3.org/2000/svg" viewBox="0 0 193 224.96">
  <defs>
    <style>
      .cls-1 {
        fill: #29717a;
      }

      .cls-2 {
        fill: #e2e1a5;
      }

      .cls-3 {
        fill: #2b6b6c;
      }

      .cls-4 {
        fill: #cecb8e;
      }

      .cls-5 {
        fill: #fff;
      }

      .cls-6 {
        fill: #f3ec3c;
      }

      .cls-7 {
        fill: #efea3c;
        stroke: #f3ec3c;
        stroke-linecap: round;
        stroke-linejoin: round;
        stroke-width: 0.39px;
      }

      .cls-8 {
        fill: #c25328;
      }

      .cls-9 {
        fill: #0d0c0c;
      }
    </style>
  </defs>
  <g>
    <path class="cls-1" d="M393.8,339.48q0,96.14,0,192.28c0,1.36-.36,1.67-1.94,1.67q-40.77-.07-81.53,0c.43-1.08,1.63-1.6,2.42-2.43,4.34-4.51,7.55-9.65,10.87-14.73a1,1,0,0,0,0-1.2l-2.1.7c-.42-.54-.16-.92.09-1.38a28,28,0,0,0,2.25-6,82.18,82.18,0,0,0,2-10c.55-3.59,1.17-7.18,1.36-10.82.06-1-.27-1.21-1.25-.63-.42.26-.77.88-1.41.5s-.33-1-.24-1.51a61.58,61.58,0,0,0,.36-20.27c-.06-.4.09-1-.49-1.08s-.79.4-1.09.73a21.13,21.13,0,0,1-5.74,4.11c-2,1.07-2.17,1-2.86-.9-.23-.63-.54-1.24-.83-1.85-.16-.34-.34-.75-.81-.74-.64,0-.68.54-.8.92a14.84,14.84,0,0,1-5,7.11c-.37.3-.65.75-1.17.44s.11-.74.25-1.07a17.06,17.06,0,0,0,1.5-7.12c-.66,1.15-1.06,1.9-1.52,2.63-2.25,3.55-5.67,6.19-9.09,8.85-1,.79-1.76.62-2.3-.35a9.53,9.53,0,0,0-3.47-3.06c-.37-.25-.69-.74-1.23-.41s-.16.67-.09,1a7.21,7.21,0,0,0,1.29,2.24c-1.62.8-3.37.2-5.05.37a10.6,10.6,0,0,1-4.89-2.91c-.39-.34-.76-1.16-1.46-.73s.26.9.32,1.4,1.22,1.18.25,1.7c-.75.41-1.34-.39-1.94-.77-3.77-2.42-5.65-6-7.77-9.44-1.07-1.73-2-3.52-3.21-5.65l-.26,2.44-1.49,0a34,34,0,0,0-5.18-8.2c-.75-2.77-1.48-3.37-4.19-3.45a12.5,12.5,0,0,0-5.27-.72,3.62,3.62,0,0,1-3.11-1.56,7,7,0,0,1-1.71-4.56c0-2-1.39-3.2-3.21-3.79a15.84,15.84,0,0,0-6.52-1c-2.67-.05-5.39,0-5.85-3.13,0-.15-.25-.28-.38-.42,6.26-.41,12.45-1.54,18.76-1.53,1.55,0,1.58-.72,1.11-1.65a16.08,16.08,0,0,1-1.23-4.93,1.16,1.16,0,0,1,.85-1.49,1.45,1.45,0,0,1,1.64.86c1.06,1.75,2.09,3.53,3.27,5.23,2,2.85,3.24,6.24,7.37,7.51,2.69.82,5.34,1.75,8.09,2.38,6.47,1.48,13,2.81,19.49,4.2a3.73,3.73,0,0,0,2.6-.2q12-5.59,24.1-11c1-.46,1.57-.9,1.49-1.87.11-.34.24-.94.66-.76,2.68,1.14,2.88-.86,3.49-2.1a23.89,23.89,0,0,0,1.84-7.6,12.47,12.47,0,0,0-.8-6.88.71.71,0,0,0-.5.83,27.38,27.38,0,0,1-1.24,8.06,2.22,2.22,0,0,1-2.14,1.9c-1.48.07-1.13-1.09-1.31-1.87-.08-.34,0-1.22-.54-.86-1.07.67-1.12-.08-1.5-.49s-.72-.68-1.24-.39c-1.13.63-2.31.27-3.48.25-1.2-.62-1.46,0-1.5.87a7.61,7.61,0,0,1-1,4c-.19.3-.2.79-.71.75a1.13,1.13,0,0,1-.72-.56c-2-3.31-5.66-4.39-9.53-5.17a2.07,2.07,0,0,0-1.84-1.25c-.82,0-1.89,0-.92,1.16,4.09,4.92,5.84,8.82,4.8,10.93-1.29-1.7-2.68-3.29-3.77-5-2.57-4.08-6.48-6.48-11.73-7.29a10.56,10.56,0,0,0-7.53-.12l.15.17a162.77,162.77,0,0,1-16.23,3.39c-5.82.74-11.51.22-16.49-2.18A67.37,67.37,0,0,1,222.83,408c-7-7.91-11.16-16.68-11.11-26.81,0-2.82.83-5.52.91-8.3a63.42,63.42,0,0,1,9.76-18.55,15,15,0,0,0,2.74-3.34l3.86-4,.46-.68c.4-.08.66-.25.51-.66l0,0a104.09,104.09,0,0,0,8.41-7.35,47.76,47.76,0,0,0,8.11-6.91,69.19,69.19,0,0,1,22.79-16.32c2.1.14,3.88-.29,4.84-2.11a36.09,36.09,0,0,1,6.89-2.26c.69.41,1.18.9.73,1.66-.81,1.41.45,1.32,1.27,1.15,2.05-.43,4.24-.64,5.84-2.06,5.8-1.35,11.59-2.71,17.62-3h10a155.55,155.55,0,0,1,17.22,2.18c-.55,1-1.57.57-2.06,1.43,3,.11,5.79.32,8.6.68a83.15,83.15,0,0,1,24.67,7.18A92.87,92.87,0,0,1,392.16,339,1.52,1.52,0,0,0,393.8,339.48Zm-65-8,.14.09-.11.12-.78-.58c-1.23-.46-2-1.62-3.43-1.77a.75.75,0,0,0-.33-.1c-1.19-1.36-3-1.64-4.76-2.12a5.19,5.19,0,0,0-2.49-.65,6.6,6.6,0,0,0-2.61-.46,17.74,17.74,0,0,0-7.64,0l-1.5.33-.61.23,0,0a4,4,0,0,0-1.86.82,7.74,7.74,0,0,0-3.89,3.36,1.63,1.63,0,0,0-.89,1.09c-2.81,6.08-1.4,11.3,4,14.58-.1.42-.25,1.1-.63,1.06-2.37-.24-4.25,1.48-6.51,1.23a16.38,16.38,0,0,0-8.57,1c-2.26,1-3.88,2.34-3.69,4.74-.35,1.23-1.09,2.35-1.15,3.65-.42,9,5.25,15.93,16.29,17a7,7,0,0,0,3.41.31l3.61.05a21.45,21.45,0,0,0,5.43.09c.86-.09,1.51-.95,2.54-.51,1.92.82,2.83.36,2.32-1.85,1.77,1,3,.36,4.38-.13s2.53-1.52,3.93-2.08c4.77-1.94,8.06-5.44,10.95-8.92a26.34,26.34,0,0,0,6.31-14.5,9.31,9.31,0,0,0-1.78-7,7.44,7.44,0,0,1-1.71-3.18c-.25-1.08-.68-2.23-2.57-1.84-.85.17-1.25-.41-1.7-1-.86-1.2-1.66-2.62-3.76-2.47l.26-.17ZM382.24,417c-1,.43-.91,1-1.12,1.53-1,2.44-1.46,5-2.9,7.38-2.59,4.22-2.76,4.28-6.34.61-.45-.47-.86-1.07-1.67-.87-1,.25-.83,1.05-.83,1.69,0,3.21-1.76,5.78-3.91,8.21-.54.62-1.26,1.35-2.24,1.08s-1-1.27-1-2c.12-3.22-1-6.21-2.06-9.23-.33-1-.9-2.2-2.13-2.27-2-.13-2.5-1.39-3.09-2.57-1.31-2.66-3.68-4.69-5.53-7-.15-.19-.44-.29-.79,0a1.83,1.83,0,0,0,.16.62A51.64,51.64,0,0,1,355.45,429c.1.36.24.76.7.84,2.27.39,2.23,1.94,2.23,3.39a17.31,17.31,0,0,0,.86,5.74c.85,2.49,1.38,2.66,3.81,1.15a3.7,3.7,0,0,0,1.09-.83c1.9-2.54,4.7-4.52,6.13-7.35.55-1.09,1.36-1.25,2.49-.53,2.48,1.58,2.49,1.56,4.38-.59a17.21,17.21,0,0,0,1.25-1.46C381,425.63,383,421.76,382.24,417ZM327.38,468.5c.87-.24.75-1.25,1.63-1,.72.22.65.86.74,1.39s0,1.38.36,1.29c2.36-.57,1.17,1,1.27,1.59.3,1.61.35,3.25.5,4.88.06.6,0,1.29.86,1.51s1.24-.38,1.75-.78a21.36,21.36,0,0,0,5.59-6.74c1-1.78,1.68-1.87,3.37-.53.84.67,1.91,1,2.62.28a13.3,13.3,0,0,0,3.35-6.2c-1.16.45-1.39,1.14-1.85,1.64-1.79,2-2,2-3.81,0-.77-.84-1.45-2.06-2.91-1.76s-1,1.73-1.22,2.65a15.65,15.65,0,0,1-4.8,7.92,1.39,1.39,0,0,1-1.47.5c-.64-.24-.53-.78-.49-1.27a21.48,21.48,0,0,0-.6-5.41,18,18,0,0,0-2.73-6.44c-.91-1.41-2.29.28-3.22-.52-.58.55-.33,1.18,0,1.7C327.2,464.85,327.17,466.62,327.38,468.5ZM226.07,405.58a1.55,1.55,0,0,0,1.64-1.55c0-1-.68-1.55-1.82-1.53s-1.77.48-1.68,1.45A1.72,1.72,0,0,0,226.07,405.58Zm49.79.77c1.15,0,1.61-.59,1.62-1.49a1.31,1.31,0,0,0-1.34-1.52c-1.13-.06-1.89.45-1.91,1.46S274.83,406.22,275.86,406.35Z" transform="translate(-200.84 -308.47)"/>
    <path class="cls-2" d="M304.73,375.48l-3.61-.05a16.71,16.71,0,0,1-4.42-9c-.27-2.24-.19-4.46-.26-6.69a2.44,2.44,0,0,0-.5-2,10.51,10.51,0,0,0-.35,1c-1.37,5.67-1.54,11.23,2.12,16.42-11-1.09-16.71-8-16.29-17,.06-1.3.8-2.42,1.15-3.65.52-.63,1-1.29,1.56-1.91,2.9-3.23,7.76-4.32,11.35-2.57a6.64,6.64,0,0,0-6.66,3.92c-2.39,4.61-2.07,9.43-1,14.23A7.46,7.46,0,0,0,290,372c.36.33.64.84,1.53.5a21.81,21.81,0,0,1-2.32-10.56c.11-5.26,2.25-9.3,8.24-11.3l6.58.57a4.57,4.57,0,0,0-1.41,2c-1.89,3.8-1.82,7.76-1.36,11.76a19.68,19.68,0,0,0,.3,2.16,2.93,2.93,0,0,0,1.17,2.32c-.94-6.7-.31-12.79,3.77-18.3l5-.83a3.42,3.42,0,0,1,.15,1.95c-.08,5.82,2.36,10.56,7.95,14,1,.59,2.35.55,2.92,1.62a17.38,17.38,0,0,1-5.16,3.44c-5.69-2-8.31-6.1-9.82-11.46-.76,7.11,1.46,10.73,7.38,12.7C311.86,374.31,308.26,374.8,304.73,375.48Z" transform="translate(-200.84 -308.47)"/>
    <path class="cls-3" d="M317.41,371.3a17.38,17.38,0,0,0,5.16-3.44,7.38,7.38,0,0,0,2.45-2.18,11,11,0,0,0,2.24-2.55,2,2,0,0,0,1.14-1.43,18.33,18.33,0,0,0,2.86-4.36l1-2.21c1.48-3.28,2.47-6.63,2.05-10.2l0-1a14.36,14.36,0,0,0-2.61-8.48,3.83,3.83,0,0,0-1.46-1.86l-1.21-1.49c2.1-.15,2.9,1.27,3.76,2.47.45.62.85,1.2,1.7,1,1.89-.39,2.32.76,2.57,1.84a7.44,7.44,0,0,0,1.71,3.18,9.31,9.31,0,0,1,1.78,7,26.34,26.34,0,0,1-6.31,14.5c-2.89,3.48-6.18,7-10.95,8.92-1.4.56-2.47,1.56-3.93,2.08s-2.61,1.14-4.38.13c.51,2.21-.4,2.67-2.32,1.85-1-.44-1.68.42-2.54.51a21.45,21.45,0,0,1-5.43-.09c3.53-.68,7.13-1.17,10.24-2.94A4.64,4.64,0,0,0,317.41,371.3Z" transform="translate(-200.84 -308.47)"/>
    <path class="cls-3" d="M382.24,417c.75,4.73-1.23,8.6-3.85,12.32a17.21,17.21,0,0,1-1.25,1.46c-1.89,2.15-1.9,2.17-4.38.59-1.13-.72-1.94-.56-2.49.53-1.43,2.83-4.23,4.81-6.13,7.35a3.7,3.7,0,0,1-1.09.83c-2.43,1.51-3,1.34-3.81-1.15a17.31,17.31,0,0,1-.86-5.74c0-1.45,0-3-2.23-3.39-.46-.08-.6-.48-.7-.84a51.64,51.64,0,0,0-6.65-14.84,1.83,1.83,0,0,1-.16-.62c.35-.29.64-.19.79,0,1.85,2.34,4.22,4.37,5.53,7,.59,1.18,1.05,2.44,3.09,2.57,1.23.07,1.8,1.25,2.13,2.27,1,3,2.18,6,2.06,9.23,0,.76,0,1.74,1,2s1.7-.46,2.24-1.08c2.15-2.43,3.91-5,3.91-8.21,0-.64-.14-1.44.83-1.69.81-.2,1.22.4,1.67.87,3.58,3.67,3.75,3.61,6.34-.61,1.44-2.35,1.86-4.94,2.9-7.38C381.33,418.07,381.27,417.46,382.24,417Z" transform="translate(-200.84 -308.47)"/>
    <path class="cls-3" d="M304.07,351.2l-6.58-.57a4.69,4.69,0,0,0-2-.66c-3.59-1.75-8.45-.66-11.35,2.57-.55.62-1,1.28-1.56,1.91-.19-2.4,1.43-3.76,3.69-4.74a16.38,16.38,0,0,1,8.57-1c2.26.25,4.14-1.47,6.51-1.23.38,0,.53-.64.63-1.06a14.41,14.41,0,0,0,9.26-.8c2.55-1.15,3.33-2.66,2.55-4.92l-.72-.93c-.09-1-.9-1.28-1.87-1.38a2,2,0,0,0-1.86.61c-.44.66.35.92.84,1.22l.16.39a3.63,3.63,0,0,1-1.72,1.58l-.09,0-.71.23c-1.93.5-1.89-1-2.56-1.85a1.27,1.27,0,0,0-.35-1.16,9.88,9.88,0,0,1,.22-3.94.6.6,0,0,0-.08-1l.7-.47a3.36,3.36,0,0,0,2.06-.66l.1,0h.19l.17-.07h1.26l1.14.11,1.86,1,1.17,1.1.95,1.07.73,1.43c.17.4-.14.95.5,1.21.25.55-.37,1.24.37,1.71l.2.76a8.33,8.33,0,0,0-.06,2.86c-.21.37-.67.68-.41,1.17-.18.45-.35.91-.53,1.36a12.26,12.26,0,0,0-2.37,2.63,3,3,0,0,0-1.52.6l-5,.83Zm-2.95-1.87.33-.18-.16-.15c-.07.1-.15.19-.22.28l-.11.14Zm-.56.89a4.67,4.67,0,0,0,3.13.44c.54-.05,1.28-.18,1.19-.77s-.95-.62-1.52-.5C302.45,349.58,301.58,349.91,300.56,350.22Zm5.23-2.1a2.7,2.7,0,0,0-2.47.1A2.14,2.14,0,0,0,305.79,348.12Zm-6.9,1.62c-.06-.09-.1-.23-.19-.26a.43.43,0,0,0-.36.06c-.15.19,0,.32.21.34A1,1,0,0,0,298.89,349.74Z" transform="translate(-200.84 -308.47)"/>
    <path class="cls-2" d="M305.12,335.49a9.88,9.88,0,0,0-.22,3.94l-4.64.59c1.6.78,3.33.44,5,.57.67.81.63,2.35,2.56,1.85.31.09.56.06.71-.23l.09,0c.54.52,1.07,1.05,1.71,1.68.54-.58.35-1.64,1.49-1.52a1.23,1.23,0,0,1,.76.52c.51.78,0,1.35-.6,1.9a8.5,8.5,0,0,0-.74.85,14.41,14.41,0,0,1-9.26.8c-5.35-3.28-6.76-8.5-3.94-14.58a8.15,8.15,0,0,1,1.35,1.11A7.11,7.11,0,0,0,305.12,335.49Z" transform="translate(-200.84 -308.47)"/>
    <path class="cls-2" d="M212.63,372.91c-1.46-2-3.7-3.42-5-5.47-.46-2.9.7-5.37,2.8-7.52s5.22-3.58,8.41-4.58a5,5,0,0,0,2.57-1.11l1,.13A63.42,63.42,0,0,0,212.63,372.91Z" transform="translate(-200.84 -308.47)"/>
    <path class="cls-3" d="M327.38,468.5c-.21-1.88-.18-3.65-1.1-5.27-.29-.52-.54-1.15,0-1.7.93.8,2.31-.89,3.22.52a18,18,0,0,1,2.73,6.44,21.48,21.48,0,0,1,.6,5.41c0,.49-.15,1,.49,1.27a1.39,1.39,0,0,0,1.47-.5,15.65,15.65,0,0,0,4.8-7.92c.22-.92-.31-2.33,1.22-2.65s2.14.92,2.91,1.76c1.79,2,2,2,3.81,0,.46-.5.69-1.19,1.85-1.64a13.3,13.3,0,0,1-3.35,6.2c-.71.72-1.78.39-2.62-.28-1.69-1.34-2.37-1.25-3.37.53a21.36,21.36,0,0,1-5.59,6.74c-.51.4-.94,1-1.75.78s-.8-.91-.86-1.51c-.15-1.63-.2-3.27-.5-4.88-.1-.55,1.09-2.16-1.27-1.59-.4.09-.29-.83-.36-1.29s0-1.17-.74-1.39C328.13,467.25,328.25,468.26,327.38,468.5Z" transform="translate(-200.84 -308.47)"/>
    <path class="cls-3" d="M317.93,434.17c-.92-1.51-1.07-3.22-1.75-4.79-.3-.7-.25-1.69-1.51-1.82l-.15.34-1.21,2.19c-.52-1.35-.32-2.52-.93-3.5a.46.46,0,0,0-.31-.56c-.37-.56-.93-1-.9-1.77,1.17,0,2.35.38,3.48-.25.52-.29.92,0,1.24.39s.43,1.16,1.5.49c.55-.36.46.52.54.86.18.78-.17,1.94,1.31,1.87a2.22,2.22,0,0,0,2.14-1.9,27.38,27.38,0,0,0,1.24-8.06.71.71,0,0,1,.5-.83,12.47,12.47,0,0,1,.8,6.88,23.89,23.89,0,0,1-1.84,7.6c-.61,1.24-.81,3.24-3.49,2.1C318.17,433.23,318,433.83,317.93,434.17Zm-2.86-8.06L315,426l-.06.1Z" transform="translate(-200.84 -308.47)"/>
    <path class="cls-2" d="M314.64,336.57c-.32-.36-.63-.72-.95-1.07.7-1.84,2.49-3,3.84-4.38h0c2-.32,3.84-1.08,5.91-.95a1.11,1.11,0,0,0,1.2-.83c1.45.15,2.2,1.31,3.44,1.77a1,1,0,0,0,.77.58l.11-.12-.15-.09c0,.33.06.54.52.44l-.26.17,1.21,1.49a3,3,0,0,1-1,.26A28.76,28.76,0,0,0,314.64,336.57Z" transform="translate(-200.84 -308.47)"/>
    <path class="cls-2" d="M230.34,340.62a3.08,3.08,0,0,0-1.19-1.72c0-.29-.07-.58-.1-.87h0a5.16,5.16,0,0,0,3.76-2.49c.5-.77.71-1.69,1.62-2.23,2.06,1.25,2.76,3.29,3.91,5.06a104.09,104.09,0,0,1-8.41,7.35c.17-1,.34-2,.5-3,1.21-.2,2.93-.35,2.83-1.54C233.18,340.39,231.37,340.77,230.34,340.62Z" transform="translate(-200.84 -308.47)"/>
    <path class="cls-2" d="M312.52,334.4l-1.86-1a16.26,16.26,0,0,1,.19-2.52c.45-2,.94-4,3.59-4.84a6.61,6.61,0,0,1,2.62.46c-1.75.85-3.35,1.79-3.62,4.17,2.21-1.49,3.78-3,6.11-3.52,1.73.48,3.57.76,4.77,2.12a22.23,22.23,0,0,0-2.72.13c-1.52.26-3.27.2-4.07,1.75h0a3.13,3.13,0,0,0-2.37.83C314.29,332.77,313.4,333.58,312.52,334.4Z" transform="translate(-200.84 -308.47)"/>
    <path class="cls-2" d="M225.13,351c-2-1.3-4.51-2.32-4-5.14a3.44,3.44,0,0,1,3.5-3c.78,0,1.35.21,1.12,1.1-.55,2.09-.17,2.55,2.27,2.87.34,0,.67.11,1,.16Z" transform="translate(-200.84 -308.47)"/>
    <path class="cls-4" d="M297.71,375.12c-3.66-5.19-3.49-10.75-2.12-16.42a10.51,10.51,0,0,1,.35-1,2.44,2.44,0,0,1,.5,2c.07,2.23,0,4.45.26,6.69a16.71,16.71,0,0,0,4.42,9A7,7,0,0,1,297.71,375.12Z" transform="translate(-200.84 -308.47)"/>
    <path class="cls-2" d="M309.52,333.26h-1.26a8.55,8.55,0,0,0-1-4.19,5.3,5.3,0,0,0,.64,4.25l-.1,0c-2-1.06-3.14-2.5-2.95-4.62a12.1,12.1,0,0,0-.19-2.15l0,0,.61-.23,1.5-.33c2.2.18,1,1.89,1.7,2.85.39-.77.71-1.48,1.12-2.16a1,1,0,0,1,1.19-.54c.66.26.26.74.09,1.09A14.3,14.3,0,0,0,309.52,333.26Z" transform="translate(-200.84 -308.47)"/>
    <path class="cls-2" d="M305.74,334l-.7.47a9.57,9.57,0,0,1-6.13-3.73,7.74,7.74,0,0,1,3.89-3.36C303.54,329.68,304.08,332,305.74,334Z" transform="translate(-200.84 -308.47)"/>
    <path class="cls-3" d="M281,310.77l1.55-.35c.42.76.89,1.31,1.77.35.38-.07.86.06,1-.39,0,0-.06-.13-.1-.14-.52-.14-.75.19-1,.49l-.82-.31c1.18-1,2.75-1.06,4.22-1.36.37-.08.69-.13.8.27s-.13.48-.46.68c-1.22.76-3.05.79-3.82,2.29,1.76.25,3.13-.63,4.65-.78-1.6,1.42-3.79,1.63-5.84,2.06-.82.17-2.08.26-1.27-1.15C282.14,311.67,281.65,311.18,281,310.77Z" transform="translate(-200.84 -308.47)"/>
    <path class="cls-4" d="M309.52,333.26a14.3,14.3,0,0,1,1.39-6c.17-.35.57-.83-.09-1.09a1,1,0,0,0-1.19.54c-.41.68-.73,1.39-1.12,2.16-.67-1,.5-2.67-1.7-2.85a17.69,17.69,0,0,1,7.63,0c-2.65.8-3.14,2.84-3.59,4.84a16.26,16.26,0,0,0-.19,2.52Z" transform="translate(-200.84 -308.47)"/>
    <path class="cls-4" d="M305.74,334c-1.66-2-2.2-4.33-2.94-6.62a4,4,0,0,1,1.86-.82,12.1,12.1,0,0,1,.19,2.15c-.19,2.12,1,3.56,2.95,4.62A3.3,3.3,0,0,1,305.74,334Z" transform="translate(-200.84 -308.47)"/>
    <path class="cls-5" d="M225.79,405.88a2.17,2.17,0,0,1-2.33-2.05c-.1-1.21.82-1.79,2.11-1.82s2.34.61,2.29,1.93C227.81,405.05,227.13,405.75,225.79,405.88Z" transform="translate(-200.84 -308.47)"/>
    <path class="cls-4" d="M298.91,330.75a9.57,9.57,0,0,0,6.13,3.73.6.6,0,0,1,.08,1,7.11,7.11,0,0,1-5.74-2.54,8.15,8.15,0,0,0-1.35-1.11A1.59,1.59,0,0,1,298.91,330.75Z" transform="translate(-200.84 -308.47)"/>
    <path class="cls-5" d="M276.19,406.84c-1.28-.17-2.07-.81-2-1.94s1-1.91,2.39-1.84a1.66,1.66,0,0,1,1.69,1.91C278.21,406.1,277.64,406.82,276.19,406.84Z" transform="translate(-200.84 -308.47)"/>
    <path class="cls-4" d="M319.55,327.12c-2.33.5-3.9,2-6.11,3.52.27-2.38,1.87-3.32,3.62-4.17A5.19,5.19,0,0,1,319.55,327.12Z" transform="translate(-200.84 -308.47)"/>
    <path class="cls-4" d="M317.53,331.12c.8-1.55,2.55-1.49,4.07-1.75a22.23,22.23,0,0,1,2.72-.13.75.75,0,0,1,.32.1,1.11,1.11,0,0,1-1.2.83C321.37,330,319.5,330.8,317.53,331.12Z" transform="translate(-200.84 -308.47)"/>
    <path class="cls-3" d="M260.63,455.35l-4.19-3.45C259.15,452,259.88,452.58,260.63,455.35Z" transform="translate(-200.84 -308.47)"/>
    <path class="cls-3" d="M269.23,315.14a17.78,17.78,0,0,1,4.84-2.11C273.11,314.85,271.33,315.28,269.23,315.14Z" transform="translate(-200.84 -308.47)"/>
    <path class="cls-3" d="M297.71,424.15l-2.76-.08c-1-1.14.1-1.18.92-1.17A2.07,2.07,0,0,1,297.71,424.15Z" transform="translate(-200.84 -308.47)"/>
    <path class="cls-3" d="M267.3,463.52a4.93,4.93,0,0,1-.47,2.69l-1-2.66Z" transform="translate(-200.84 -308.47)"/>
    <path class="cls-3" d="M284.25,422.68l-1.36,0a18.52,18.52,0,0,0-6.17-.15A10.56,10.56,0,0,1,284.25,422.68Z" transform="translate(-200.84 -308.47)"/>
    <path class="cls-2" d="M229.45,346.35c0-.32.06-.6.51-.66C230.11,346.1,229.85,346.27,229.45,346.35Z" transform="translate(-200.84 -308.47)"/>
    <path class="cls-3" d="M328.85,331.69a1,1,0,0,1-.77-.58Z" transform="translate(-200.84 -308.47)"/>
    <path class="cls-3" d="M329.33,331.92c-.46.1-.56-.11-.52-.44C329,331.62,329.16,331.77,329.33,331.92Z" transform="translate(-200.84 -308.47)"/>
    <path class="cls-4" d="M305.31,326.37l-.61.23Z" transform="translate(-200.84 -308.47)"/>
    <path class="cls-2" d="M218.53,348.51a35.08,35.08,0,0,0,2.71,5.63,14.65,14.65,0,0,0-6.57.72,17,17,0,0,0-8.06,6.63c-.48.67-.52,1.72-1.85,1.73-1.51-2.42-2.95-4.86-3-7.71,3.73-1,7.09-2.83,11.07-3.29a7.13,7.13,0,0,0-4.38-.62,42.22,42.22,0,0,0-7.52,1.68l-.09-3.28c2.57-2.56,5.34-4.62,9.73-4.41C213.73,345.75,216,347.35,218.53,348.51Z" transform="translate(-200.84 -308.47)"/>
    <path class="cls-2" d="M221.45,339.81c-.55.77-.82,1.69-1.7,2.27-1.87-3-6.76-4.58-10-3.18.57.61,1.4.51,2.12.65,4.09.81,6.63,2.75,7,5.39l-.33,1.26c-.42-.21-.86-.41-1.26-.65-5.59-3.27-11.87-2.68-16.47,1.55.61-4.71,2.55-8.83,7.13-11.74a.71.71,0,0,0,.27-.21l.13-.1,2.48-.24C214.57,334.44,220.14,336.16,221.45,339.81Z" transform="translate(-200.84 -308.47)"/>
    <path class="cls-2" d="M224.06,338.24l-1.38.6a11,11,0,0,0-8.17-4.85c-1.17-.15-2.34-.38-3.5-.57a15.91,15.91,0,0,1,4.56-1.69c3.12.11,5.43,1.83,8.29,3.24.15.09,0,0-.11-.14s-.25-.1-.16.1.17.29.26.44c.08-.05.17-.11,0-.4a4.86,4.86,0,0,0-3.08-3.12c-.57-.27-1.44-.22-1.5-1a13.23,13.23,0,0,1,5.53-.39,14.44,14.44,0,0,1,1.06,2.69C226.23,335,226.71,337.08,224.06,338.24Z" transform="translate(-200.84 -308.47)"/>
    <path class="cls-4" d="M200.89,347.1c4.6-4.23,10.88-4.82,16.47-1.55.4.24.84.44,1.26.65,0,.77-.06,1.54-.08,2.31-2.56-1.16-4.81-2.76-8-2.92-4.39-.21-7.16,1.85-9.73,4.41C200.86,349,200.87,348.07,200.89,347.1Z" transform="translate(-200.84 -308.47)"/>
    <path class="cls-4" d="M204.76,363.22c1.33,0,1.37-1.06,1.85-1.73a17,17,0,0,1,8.06-6.63,14.65,14.65,0,0,1,6.57-.72l.13.09a5,5,0,0,1-2.57,1.11c-3.19,1-6.19,2.29-8.41,4.58s-3.26,4.62-2.8,7.52C206.14,366.29,204.89,365,204.76,363.22Z" transform="translate(-200.84 -308.47)"/>
    <path class="cls-2" d="M226.06,330.4a9.7,9.7,0,0,1,4.66.76c0,2.4.41,4.86-1.68,6.87h0l-1.24,0-.08,0a1.43,1.43,0,0,1-.48-1.33A9.31,9.31,0,0,0,226.06,330.4Z" transform="translate(-200.84 -308.47)"/>
    <path class="cls-4" d="M200.93,353.28a42.22,42.22,0,0,1,7.52-1.68,7.13,7.13,0,0,1,4.38.62c-4,.46-7.34,2.33-11.07,3.29C201.35,354.81,200.73,354.16,200.93,353.28Z" transform="translate(-200.84 -308.47)"/>
    <path class="cls-4" d="M211,333.42c1.16.19,2.33.42,3.5.57a11,11,0,0,1,8.17,4.85l-1.23,1c-1.31-3.65-6.88-5.37-10.55-5l-2.48.24A6.43,6.43,0,0,1,211,333.42Z" transform="translate(-200.84 -308.47)"/>
    <path class="cls-4" d="M229,338c2.09-2,1.7-4.47,1.68-6.87a6.76,6.76,0,0,1,3.7,2.15c-.91.54-1.12,1.46-1.62,2.23A5.16,5.16,0,0,1,229,338Z" transform="translate(-200.84 -308.47)"/>
    <path class="cls-4" d="M226.06,330.4a9.31,9.31,0,0,1,1.19,6.29,1.43,1.43,0,0,0,.48,1.33l-3.68.22c2.66-1.16,2.18-3.2,1.82-5.13a14.44,14.44,0,0,0-1.06-2.69Z" transform="translate(-200.84 -308.47)"/>
    <path class="cls-4" d="M219.28,330.81c.06.82.93.77,1.5,1,1.37.65,2.61,1.4,2.79,2.9-2.57-1.19-4.88-2.91-8-3A6.66,6.66,0,0,1,219.28,330.81Z" transform="translate(-200.84 -308.47)"/>
    <path class="cls-1" d="M284.28,310.77c-.88,1-1.35.41-1.77-.35h.9l.82.31Z" transform="translate(-200.84 -308.47)"/>
    <path class="cls-1" d="M312.07,426a.46.46,0,0,1,.31.56Z" transform="translate(-200.84 -308.47)"/>
    <path class="cls-1" d="M314.52,427.9l.15-.34Z" transform="translate(-200.84 -308.47)"/>
    <path class="cls-4" d="M208.29,335.15a.71.71,0,0,1-.27.21A.48.48,0,0,1,208.29,335.15Z" transform="translate(-200.84 -308.47)"/>
    <path class="cls-4" d="M295.48,350a4.69,4.69,0,0,1,2,.66c-6,2-8.13,6-8.24,11.3a21.81,21.81,0,0,0,2.32,10.56c-.89.34-1.17-.17-1.53-.5a7.46,7.46,0,0,1-2.2-3.87c-1.09-4.8-1.41-9.62,1-14.23A6.64,6.64,0,0,1,295.48,350Z" transform="translate(-200.84 -308.47)"/>
    <path class="cls-4" d="M311.55,350.3a3,3,0,0,1,1.52-.6,60.22,60.22,0,0,0,1.56,6.53c1.62,4.61,4.65,8.17,10.39,9.45a7.38,7.38,0,0,1-2.45,2.18c-.57-1.07-2-1-2.92-1.62-5.59-3.43-8-8.17-7.95-14A3.42,3.42,0,0,0,311.55,350.3Z" transform="translate(-200.84 -308.47)"/>
    <path class="cls-4" d="M317.41,371.3a4.64,4.64,0,0,1-2.44,1.24c-5.92-2-8.14-5.59-7.38-12.7C309.1,365.2,311.72,369.29,317.41,371.3Z" transform="translate(-200.84 -308.47)"/>
    <path class="cls-4" d="M304.07,351.2l2.47-.07c-4.08,5.51-4.71,11.6-3.77,18.3a2.93,2.93,0,0,1-1.17-2.32,19.68,19.68,0,0,1-.3-2.16c-.46-4-.53-8,1.36-11.76A4.57,4.57,0,0,1,304.07,351.2Z" transform="translate(-200.84 -308.47)"/>
    <path class="cls-2" d="M316.44,341.68c-.07-.25-.13-.5-.2-.76,3.29-1.28,6.85-1.48,10.83-1.57a4.52,4.52,0,0,0-3-1.21c-2.86-.39-5.55.32-8.23,1.07-.64-.26-.33-.81-.5-1.21a2.76,2.76,0,0,1,2.05-1.65,27.65,27.65,0,0,1,7.93-1.29c2.15,0,4.25.39,6.39.38a14.36,14.36,0,0,1,2.61,8.48C329.11,346.83,320.26,344.72,316.44,341.68Z" transform="translate(-200.84 -308.47)"/>
    <path class="cls-2" d="M316,345.71c-.26-.49.2-.8.41-1.17A39.09,39.09,0,0,0,327,346.62c2.6.12,5.38.42,7.35-1.69.42,3.57-.57,6.92-2.05,10.2-8.47.7-12-1.2-15-8.1C317,346.45,316.75,345.89,316,345.71Z" transform="translate(-200.84 -308.47)"/>
    <path class="cls-2" d="M325,365.68c-5.74-1.28-8.77-4.84-10.39-9.45a60.22,60.22,0,0,1-1.56-6.53,12.26,12.26,0,0,1,2.37-2.63,9.21,9.21,0,0,1,.74,1.28c2.64,6.81,6.83,9.32,15.08,9a18.08,18.08,0,0,1-2.86,4.35c-3.63-1.26-7.5-2.17-10-5.22-.14,1.76,1,2.69,2.22,3.58a29.62,29.62,0,0,0,6.62,3.08A11,11,0,0,1,325,365.68Z" transform="translate(-200.84 -308.47)"/>
    <path class="cls-4" d="M331.26,357.34c-8.25.33-12.44-2.18-15.08-9a9.21,9.21,0,0,0-.74-1.28c.18-.45.35-.91.53-1.36.78.18,1,.74,1.3,1.32,3,6.9,6.53,8.8,15,8.1Z" transform="translate(-200.84 -308.47)"/>
    <path class="cls-4" d="M334.32,344.93c-2,2.11-4.75,1.81-7.35,1.69a39.09,39.09,0,0,1-10.59-2.08,8.33,8.33,0,0,1,.06-2.86c3.82,3,12.67,5.15,17.91,2.24Z" transform="translate(-200.84 -308.47)"/>
    <path class="cls-4" d="M331.74,335.44c-2.14,0-4.24-.36-6.39-.38a27.65,27.65,0,0,0-7.93,1.29,2.76,2.76,0,0,0-2.05,1.65l-.73-1.43a28.76,28.76,0,0,1,14.67-2.73,3,3,0,0,0,1-.26A3.83,3.83,0,0,1,331.74,335.44Z" transform="translate(-200.84 -308.47)"/>
    <path class="cls-4" d="M327.26,363.13a29.62,29.62,0,0,1-6.62-3.08c-1.22-.89-2.36-1.82-2.22-3.58,2.48,3,6.35,4,10,5.22A1.94,1.94,0,0,1,327.26,363.13Z" transform="translate(-200.84 -308.47)"/>
    <path class="cls-4" d="M315.87,339.21c2.68-.75,5.37-1.46,8.23-1.07a4.52,4.52,0,0,1,3,1.21c-4,.09-7.54.29-10.83,1.57C315.5,340.45,316.12,339.76,315.87,339.21Z" transform="translate(-200.84 -308.47)"/>
    <path class="cls-4" d="M311.23,345.62a8.5,8.5,0,0,1,.74-.85c.58-.55,1.11-1.12.6-1.9a1.23,1.23,0,0,0-.76-.52c-1.14-.12-.95.94-1.49,1.52-.64-.63-1.17-1.16-1.71-1.68a3.63,3.63,0,0,0,1.72-1.58c1.15.08,2.26,1.16,3.45.09C314.56,343,313.78,344.47,311.23,345.62Z" transform="translate(-200.84 -308.47)"/>
    <path class="cls-4" d="M312.52,334.4c.88-.82,1.77-1.63,2.64-2.45a3.13,3.13,0,0,1,2.37-.83c-1.35,1.41-3.14,2.54-3.84,4.38Z" transform="translate(-200.84 -308.47)"/>
    <path class="cls-4" d="M310.17,340.22c-.49-.3-1.28-.56-.84-1.22a2,2,0,0,1,1.86-.61c1,.1,1.78.38,1.87,1.38Z" transform="translate(-200.84 -308.47)"/>
    <path class="cls-1" d="M300.56,350.22c1-.31,1.89-.64,2.8-.83.57-.12,1.4-.22,1.52.5s-.65.72-1.19.77A4.67,4.67,0,0,1,300.56,350.22Z" transform="translate(-200.84 -308.47)"/>
    <path class="cls-4" d="M305.25,340.59c-1.66-.13-3.39.21-5-.57l4.64-.59A1.27,1.27,0,0,1,305.25,340.59Z" transform="translate(-200.84 -308.47)"/>
    <path class="cls-4" d="M307.9,333.31a5.3,5.3,0,0,1-.64-4.25,8.55,8.55,0,0,1,1,4.19l-.17.07Z" transform="translate(-200.84 -308.47)"/>
    <path class="cls-2" d="M310.17,340.22l2.89-.45.72.93c-1.19,1.07-2.3,0-3.45-.09C310.28,340.48,310.23,340.35,310.17,340.22Z" transform="translate(-200.84 -308.47)"/>
    <path class="cls-1" d="M305.79,348.12a2.14,2.14,0,0,1-2.47.1A2.7,2.7,0,0,1,305.79,348.12Z" transform="translate(-200.84 -308.47)"/>
    <path class="cls-1" d="M298.89,349.74a1,1,0,0,1-.34.14c-.24,0-.36-.15-.21-.34a.43.43,0,0,1,.36-.06C298.79,349.51,298.83,349.65,298.89,349.74Z" transform="translate(-200.84 -308.47)"/>
    <path class="cls-1" d="M301.07,349.28l.22-.28.16.15-.33.18Z" transform="translate(-200.84 -308.47)"/>
    <path class="cls-4" d="M308.52,342.21c-.15.29-.4.32-.71.23Z" transform="translate(-200.84 -308.47)"/>
    <path class="cls-1" d="M301.12,349.33l-.16.09.11-.14Z" transform="translate(-200.84 -308.47)"/>
    <path class="cls-4" d="M219,344.94c-.42-2.64-3-4.58-7-5.39-.72-.14-1.55,0-2.12-.65,3.21-1.4,8.1.18,10,3.18C219.48,343,219.22,344,219,344.94Z" transform="translate(-200.84 -308.47)"/>
    <path class="cls-4" d="M230.34,340.62c1,.15,2.84-.23,2.91.59.1,1.19-1.62,1.34-2.83,1.54C230.4,342,230.37,341.33,230.34,340.62Z" transform="translate(-200.84 -308.47)"/>
    <path class="cls-4" d="M227.81,338.06l1.24,0c0,.29.06.58.1.87Z" transform="translate(-200.84 -308.47)"/>
    <polygon class="cls-1" points="114.23 117.64 114.1 117.64 114.16 117.55 114.23 117.64"/>
    <path class="cls-1" d="M284.23,310.73c.24-.3.47-.63,1-.49,0,0,.11.1.1.14-.18.45-.66.32-1,.39Z" transform="translate(-200.84 -308.47)"/>
    <path class="cls-4" d="M224.15,335.19l-.3.18c-.09-.15-.18-.29-.26-.44s0-.24.16-.1A4.33,4.33,0,0,1,224.15,335.19Z" transform="translate(-200.84 -308.47)"/>
    <g>
      <path class="cls-6" d="M228.4,433.88a5.48,5.48,0,0,1,1.7,1.24c.48.52.83,1.13,1.29,1.65l0,0a4.79,4.79,0,0,1,1.36.05,2,2,0,0,1,1.23.73,1.62,1.62,0,0,1,.16,1.43,4.1,4.1,0,0,1-.27.64c-.12.19-.26.38-.38.56h0a0,0,0,0,1,0,0c.08-.21.14-.43.22-.63s.11-.42.16-.62a1.55,1.55,0,0,0-.19-1.12,1.79,1.79,0,0,0-1-.65,4.2,4.2,0,0,0-1.28-.23h0a.07.07,0,0,1-.06,0,9.15,9.15,0,0,0-1.43-1.49c-.48-.49-1-1-1.47-1.44a0,0,0,0,1,0,0Z" transform="translate(-200.84 -308.47)"/>
      <path class="cls-6" d="M230.51,433.16a5.45,5.45,0,0,1,1.7,1.23c.47.52.83,1.13,1.29,1.65l-.06,0a5.26,5.26,0,0,1,1.37.05,2,2,0,0,1,1.23.73,1.68,1.68,0,0,1,.16,1.44,4.42,4.42,0,0,1-.27.63c-.12.2-.26.38-.39.56h0a0,0,0,0,1,0,0c.08-.21.14-.42.22-.62s.11-.42.16-.63a1.62,1.62,0,0,0-.19-1.12,1.81,1.81,0,0,0-1-.65,4.46,4.46,0,0,0-1.27-.23h0l-.05,0a10.15,10.15,0,0,0-1.43-1.5c-.48-.49-1-1-1.47-1.44a0,0,0,0,1,0,0S230.5,433.15,230.51,433.16Z" transform="translate(-200.84 -308.47)"/>
      <path class="cls-7" d="M233.66,424.62l3.37-1.45s.42,1.09-2.95,2.91Z" transform="translate(-200.84 -308.47)"/>
      <path class="cls-8" d="M225.31,435.61c-3.61-.23-5.87-2.1-8-4.17-.53-.53-.11-.85.56-1,1.21-.29,2.4-.64,3.61-.93,3.33-.79,6.24-2.05,8.13-4.73.67-.94,1.67-2,3.26-1.36a3.38,3.38,0,0,1,1.67,3.86,19.08,19.08,0,0,1-3.13,5.3C229.88,434.44,227.59,435.1,225.31,435.61Z" transform="translate(-200.84 -308.47)"/>
      <path class="cls-9" d="M231.89,426a.52.52,0,0,1-.56-.49c0-.3.19-.44.51-.45s.57.15.55.47S232.22,426,231.89,426Z" transform="translate(-200.84 -308.47)"/>
    </g>
  </g>
</svg>
