<svg xmlns="http://www.w3.org/2000/svg" viewBox="0 0 380.68 424.02"><defs><style>.cls-1{isolation:isolate;}.cls-2{opacity:0.2;mix-blend-mode:multiply;}.cls-3{fill:#eaa86c;}.cls-4{fill:#005369;}.cls-5{fill:#4b9895;}.cls-6{fill:#fff;}.cls-7{fill:#ff5b3b;}.cls-8{fill:#f12e45;}.cls-9{fill:#ffbba8;}</style></defs><g class="cls-1"><g id="圖層_1" data-name="圖層 1"><ellipse class="cls-2" cx="143.73" cy="412.86" rx="51.31" ry="11.16"/><ellipse class="cls-2" cx="282.54" cy="351.48" rx="75.78" ry="16.48"/><path class="cls-3" d="M564.14,477.43s-.79,50.26,5.79,49.7c0,0,2.73.8,0-11.61-3.49-15.79,16.06-40.3,16.06-40.3s11.57,29.45,12.12,38.85-2.35,11.77,1.44,11.62c4.68-.19,5.09-55.55,5.09-55.55Z" transform="translate(-316.35 -172.53)"/><path class="cls-4" d="M695,402c-13.39-34.13-37-75.38-42.29-91-5.15-15.25-22.7-47.74-53.3-46.39-1.51.06-3,.13-4.54.14-8.9,0-42.91,1.91-56.33,27.76-15.51,29.87-55.33,71.12-55.68,105.61s.7,83.56,84.57,96.72C655.84,508.66,708.34,436.12,695,402Z" transform="translate(-316.35 -172.53)"/><path class="cls-5" d="M596.42,372.61c0-8.8-36.21-86.14-83-70.14,0,0-29.86,11.73-17.71,22.13s27-12.26,33.31,8.8,14.8,25.07,22.2,22.67,13.74-12.8,20.08-3.47,0,11.21,3.17,22.94,11.9.53,18.5,7.73,14,22.86,14.14,16.87S596.42,381.41,596.42,372.61Z" transform="translate(-316.35 -172.53)"/><path class="cls-5" d="M657.58,312.54c-31.13-10.65-55.22,40.8-55.22,46.66s-7.91,14-6.5,17.74,4.39-5.85,8.79-10.65,10.2,2.67,12.31-5.14-2.11-9,2.11-15.26,8.44.71,13.36,2.31,10.55-1.07,14.77-15.08,14.07,1.06,22.16-5.86S657.58,312.54,657.58,312.54Z" transform="translate(-316.35 -172.53)"/><path class="cls-5" d="M680.82,380.58c-30.6-7.5-49.27,43.66-48.78,49.24s-6.37,14.06-4.72,17.49,3.71-6,7.5-10.91,9.95,1.67,11.31-6-2.77-8.45.74-14.74,8.11,0,12.94,1.06,10-1.92,12.83-15.65,13.51-.19,20.65-7.48S680.82,380.58,680.82,380.58Z" transform="translate(-316.35 -172.53)"/><path class="cls-5" d="M601.86,394.65a150.43,150.43,0,0,1,13.23,22.57c7,14.28,12.7,30.55,11.41,46.69a40.38,40.38,0,0,1-10.77,24.89c-.39.41.93.46,1.21.16a39.9,39.9,0,0,0,10.49-21.64c1.25-8.12.4-16.45-1.47-24.41-3.37-14.36-9.87-28-17.52-40.51-1.68-2.75-3.4-5.49-5.3-8.1-.25-.35-1.56,0-1.28.35Z" transform="translate(-316.35 -172.53)"/><path class="cls-5" d="M560.43,254.14s-2.25-11,3-9.38,1.55,10.23,8.82,8.12,10-.38,10.73,2.25-1.1,6.45,2.79,6.55,3.23-2.11,7.22-3.39,2.39,3.39,5.72,4,8.32-.81,7.11.86-7,.5-9.54,2.16S564.64,270.9,560.43,254.14Z" transform="translate(-316.35 -172.53)"/><path d="M574.81,298s-1.53-1.15-2.32,1.6-1.6,9.77.19,9.83,2.39-5.85,2.39-5.85S575.52,298.52,574.81,298Z" transform="translate(-316.35 -172.53)"/><path class="cls-6" d="M560.3,289.76c1.36,4.46,4.85,10.74,10.37,8.89,1.05-.35.77-1.5-.3-1.14-4.41,1.48-7.28-4.84-8.31-8.23-.23-.77-2-.28-1.76.48Z" transform="translate(-316.35 -172.53)"/><path class="cls-6" d="M562.62,284.3c.42,5.44,2.44,13.82,9,14.37.9.07,1.78-1.25.6-1.35-5.73-.48-7.44-8.76-7.77-13.14-.07-1-1.85-.71-1.79.12Z" transform="translate(-316.35 -172.53)"/><path class="cls-6" d="M566.81,281.93c-.84,5.89-.54,15.51,6.62,17,.68.14,2.08-.89,1.05-1.11-6.6-1.38-6.66-10.74-5.9-16.08.12-.81-1.67-.54-1.77.17Z" transform="translate(-316.35 -172.53)"/><path d="M599.65,298.27s1.53-1.15,2.32,1.61,1.6,9.77-.19,9.82-2.39-5.84-2.39-5.84S598.94,298.79,599.65,298.27Z" transform="translate(-316.35 -172.53)"/><path class="cls-6" d="M614.16,290c-1.36,4.46-4.85,10.74-10.37,8.89-1-.35-.77-1.5.3-1.14,4.41,1.47,7.28-4.84,8.31-8.23.23-.77,2-.28,1.76.48Z" transform="translate(-316.35 -172.53)"/><path class="cls-6" d="M611.84,284.57c-.42,5.43-2.44,13.82-9,14.36-.9.08-1.78-1.24-.6-1.34,5.73-.48,7.44-8.77,7.77-13.14.07-1,1.85-.71,1.79.12Z" transform="translate(-316.35 -172.53)"/><path class="cls-6" d="M607.65,282.2c.84,5.88.54,15.51-6.62,17-.68.15-2.08-.88-1-1.1,6.6-1.39,6.66-10.74,5.9-16.08-.12-.82,1.67-.55,1.77.17Z" transform="translate(-316.35 -172.53)"/><path class="cls-6" d="M563,341.83c1-1.09,2-2.14,3-3.15a27.45,27.45,0,0,1,2.28-2c.5-.39,1.35-1.24,1.43-.2a6.27,6.27,0,0,1-.85,2.74c-.49,1.11-1.06,2.19-1.66,3.26q-1.17,2.12-2.48,4.16s.65,0,.78-.15c.78-1.22,6.55-10.06,4.65-10.87-1.25-.53-3.4,1.81-4.12,2.47-1.34,1.24-2.62,2.57-3.84,3.93a1.35,1.35,0,0,0,.78-.15Z" transform="translate(-316.35 -172.53)"/><path class="cls-6" d="M617.23,334.68c-.54-1.33-1-2.68-1.5-4a29.89,29.89,0,0,1-.89-3.07,7.28,7.28,0,0,1-.2-1.31c0-.27.14-.73,0-.71s.58.48.73.61a11.36,11.36,0,0,1,1.14,1.16,37.56,37.56,0,0,1,2.37,3.08q1.44,2,2.75,4.17c.11.18.84-.14.79-.22-1.1-1.8-2.28-3.56-3.53-5.25-.81-1.09-2.65-4.18-4.33-3.79s-.36,3.27-.08,4.2c.55,1.83,1.21,3.62,1.93,5.38.07.17.84-.09.79-.21Z" transform="translate(-316.35 -172.53)"/><path class="cls-3" d="M465,541.72s18.25,6.37,21.43,11.16-6.21,22.69-2.28,30.41c1.08,2.12-1.39,2.92-2.07,1.07a17.3,17.3,0,0,1-1.25-4.94c-1.23-8,.8-20.22-2.44-20C462.83,560.6,458.78,546,465,541.72Z" transform="translate(-316.35 -172.53)"/><path class="cls-3" d="M451.15,543s-17.53,8.13-20.23,13.21,8.42,22,5.27,30c-.87,2.22,1.68,2.77,2.17.86a17.67,17.67,0,0,0,.76-5c.44-8.07-2.79-20,.45-20.12C455.17,561.52,457.77,546.61,451.15,543Z" transform="translate(-316.35 -172.53)"/><path class="cls-7" d="M526.87,494.56a52.53,52.53,0,0,0-3-7.91c-.72-1.54-1.55-3-2.15-4.6a66.22,66.22,0,0,1-4-14.4,15.18,15.18,0,0,1,.12-5.42,8.92,8.92,0,0,0,.21-1.78,18.84,18.84,0,0,0-.64-4.95,28.17,28.17,0,0,0-7.34-12.82c-5.25-5.39-12.37-8.73-19.61-10.48-11.77-2.85-24.17-2.18-36-.3-3.92.62-7.82,1.39-11.69,2.27-6.42,1.45-13.1,1.64-19.23,4.21a26,26,0,0,0-13.63,12.28c-2.43,5-2.6,10.57-3.89,15.83-1.05,4.24-2.3,8.42-3.38,12.66-2.39,9.43-3.89,19.27-1.72,28.91,2.95,13.06,11.86,23.53,22.21,31.61a137.52,137.52,0,0,0,23.62,14.59l.59.29.37.21c-.62-.33.15.08.29.17.41.25.82.51,1.22.78l.74.52.39.28.2.16.11.09a23.22,23.22,0,0,1,6.15,7.22,20.54,20.54,0,0,1,2,5.46,2.39,2.39,0,0,0,1.77,1.59c.49.15,1.7.29,1.68-.53a26.18,26.18,0,0,1,1.2-8.35,13.11,13.11,0,0,1,3.2-5.65,8.06,8.06,0,0,1,4.93-2.15,66.23,66.23,0,0,0,14.93-4,95.62,95.62,0,0,0,21.38-10.8c6.89-4.73,13.19-10.77,17-18.29C529.07,512.89,529.43,503.47,526.87,494.56Z" transform="translate(-316.35 -172.53)"/><path class="cls-4" d="M458.85,422.66a19.78,19.78,0,0,1-1.93-2.7,8.11,8.11,0,0,1-.44-2.63,9.59,9.59,0,0,0-4-6.07,7.48,7.48,0,0,0-3.56-.81,10,10,0,0,1-5.15-1.51h0a.48.48,0,0,0-.19-.09,2.12,2.12,0,0,0-2.74,1.46c-.28,1.64.9,2.74,1.78,3.93,1.53,2.05,2.07,4.5,3.1,6.78a4,4,0,0,0,3,2.46,25.06,25.06,0,0,0,3.74.5,4.53,4.53,0,0,1,2,.34,3,3,0,0,1,.62.66,5.64,5.64,0,0,0,1.38,1.29,2.73,2.73,0,0,0,2.68.35C461,425.66,459.76,423.84,458.85,422.66Z" transform="translate(-316.35 -172.53)"/><path class="cls-4" d="M466.9,408.51c-.64-1.37-1.6-3-1.65-4.53a3.16,3.16,0,0,1,.75-1.83,16.28,16.28,0,0,0,1.22-2.15c1.12-2.69-1.65-4.8-3.05-6.79a5,5,0,0,1-1.05-2.17c-.05-.55.11-1-.18-1.49a2.08,2.08,0,0,0-2.42-.95c-1,.37-.63,1.48-.58,2.29.09,1.49-.07,3.13-1.75,3.6h0c-2.36-.1-2.24,2.52-1.56,4.13.75,1.79,1.9,3.33,1.33,5.37-.35,1.21-1.23,2.16-1,3.5a6.68,6.68,0,0,0,1.41,2.86,11.39,11.39,0,0,1,1.74,5,10,10,0,0,0,1.09,3.84c.46.71,1.43,1.59,2.36,1.39s1.32-1.41,1.6-2.19a5,5,0,0,1,.44-1.13,11.65,11.65,0,0,1,.92-1.06,6.55,6.55,0,0,0,1.72-3.7C468.28,411.09,467.47,409.73,466.9,408.51Z" transform="translate(-316.35 -172.53)"/><path class="cls-4" d="M494.5,409.09a2.72,2.72,0,0,0-3.23-.14c-1.78,1-3.8,2.23-5.92,1.8a10.82,10.82,0,0,0-4.67.11,7.26,7.26,0,0,0-3.14,1.59c-.66.59-1.18,1.3-1.89,1.83a10.14,10.14,0,0,1-2.07,1.18,10.16,10.16,0,0,0-2.87,1.53,6.05,6.05,0,0,0-1.42,2.65c-.56,1.73-1.08,4.4.44,5.82,1.71,1.59,4.39.53,6.18-.26a9.93,9.93,0,0,1,4.55-1.14,8.59,8.59,0,0,0,3.57-.64c1.93-.76,4.25-2.15,5.22-4.09.45-.93-.08-1.84.36-2.74a3.77,3.77,0,0,1,2.6-1.87C494.4,414.06,496.67,411.07,494.5,409.09Z" transform="translate(-316.35 -172.53)"/><path class="cls-8" d="M454.91,422.9a34.82,34.82,0,0,1,3.31,3.23c1.62,1.78,3.51,3.95,3.88,6.41.09.65,1.86,1.12,1.75.42-.39-2.62-2.3-4.92-4-6.83a39.36,39.36,0,0,0-3.75-3.67c-.54-.47-2.1-.34-1.18.44Z" transform="translate(-316.35 -172.53)"/><path class="cls-8" d="M464.58,430.24c-.67-.67-.75-2.06-.87-2.94a49.51,49.51,0,0,1-.36-5.17c-.12-3.65-.05-7.3.07-10.95,0-.81.05-1.63.09-2.44,0-.38-1-.12-1.06.21a111.32,111.32,0,0,0,.15,18.26c.13,1.06.19,2.67,1,3.48.24.24,1.24-.19,1-.45Z" transform="translate(-316.35 -172.53)"/><path class="cls-8" d="M472.88,421.41a47.36,47.36,0,0,0-5.13,4.78,20.64,20.64,0,0,0-3.05,4,4.66,4.66,0,0,0-.68,3.67c.22.62,1.8.1,1.58-.51a4.23,4.23,0,0,1,.74-3.37,20.88,20.88,0,0,1,3-3.82,45.13,45.13,0,0,1,4.59-4.26c.85-.68-.51-.95-1.05-.52Z" transform="translate(-316.35 -172.53)"/><path d="M472.78,472.09s.94-.89,1.68.88,1.82,6.39.63,6.56-2.06-3.71-2.06-3.71S472.34,472.48,472.78,472.09Z" transform="translate(-316.35 -172.53)"/><path class="cls-6" d="M481.9,465.48c-.57,3.07-2.44,7.52-6.29,6.72-.73-.16-.63-.94.12-.79,3.07.65,4.52-3.78,4.95-6.11.1-.53,1.32-.35,1.22.18Z" transform="translate(-316.35 -172.53)"/><path class="cls-6" d="M479.92,462c.14,3.65-.58,9.39-4.92,10.26-.6.12-1.29-.7-.5-.85,3.81-.76,4.32-6.41,4.21-9.35,0-.65,1.19-.62,1.21-.06Z" transform="translate(-316.35 -172.53)"/><path class="cls-6" d="M476.93,460.77c1,3.85,1.55,10.28-3.15,11.84-.44.14-1.47-.43-.79-.66,4.33-1.43,3.65-7.66,2.73-11.16-.14-.53,1.08-.49,1.21,0Z" transform="translate(-316.35 -172.53)"/><path d="M454.27,473.3s.94-.88,1.69.89,1.82,6.38.62,6.56-2.05-3.71-2.05-3.71S453.84,473.7,454.27,473.3Z" transform="translate(-316.35 -172.53)"/><path class="cls-6" d="M463.39,466.7c-.57,3.07-2.44,7.52-6.29,6.71-.73-.15-.63-.94.12-.78,3.07.64,4.52-3.78,4.95-6.12.1-.53,1.32-.34,1.22.19Z" transform="translate(-316.35 -172.53)"/><path class="cls-6" d="M461.42,463.24c.13,3.65-.59,9.39-4.93,10.25-.59.12-1.29-.69-.5-.85,3.81-.76,4.33-6.4,4.22-9.34,0-.65,1.19-.62,1.21-.06Z" transform="translate(-316.35 -172.53)"/><path class="cls-6" d="M458.42,462c1,3.85,1.55,10.28-3.15,11.83-.44.15-1.46-.42-.78-.65,4.32-1.43,3.65-7.66,2.73-11.16-.14-.54,1.08-.49,1.2,0Z" transform="translate(-316.35 -172.53)"/><path class="cls-6" d="M433.25,518.91c.76.67,1.5,1.37,2.2,2.1.28.28,2.35,2.21,2,2.7s-3.51-1.37-3.95-1.61c-1-.52-1.89-1.07-2.81-1.65-.12-.07-.55.17-.49.2a42,42,0,0,0,3.69,2.12c.86.45,2.8,1.7,3.84,1.07s-3.31-4.56-4-5.13c-.1-.08-.57.14-.5.2Z" transform="translate(-316.35 -172.53)"/><path class="cls-6" d="M497.75,515.66c-.55.6-4.63,5.07-3.46,5.47.42.15,1.12-.21,1.48-.37a16.38,16.38,0,0,0,2.27-1.29c1.18-.77,2.31-1.59,3.42-2.45.09-.08-.38,0-.48.07-.7.55-6.1,4.56-6.44,3.64-.13-.35.36-1,.54-1.26a19.65,19.65,0,0,1,1.22-1.66q.93-1.14,1.92-2.22c.1-.1-.39,0-.47.07Z" transform="translate(-316.35 -172.53)"/><path class="cls-9" d="M517.4,262.74c-1.62-7.56-.12-15.41-.36-23.15-.72-22.88-17.18-43.13-37.45-53.78s-43.83-13.14-66.72-13.27a363.43,363.43,0,0,0-49,3.05c-12.89,1.69-26.64,4.57-35.47,14.1s-10.68,23.72-11.55,36.81c-.94,14-1.17,28.92,5.85,41.1,10.53,18.27,33.57,24.49,54.4,27.78,33.79,5.33,70.13,6.92,100.45-8.92,7.91-4.13,15.8-9.53,24.72-9.36,4.26.08,21.17,6.23,24,1.91C528.22,276.09,518.45,267.65,517.4,262.74Z" transform="translate(-316.35 -172.53)"/><path class="cls-6" d="M354.33,219.75A181.76,181.76,0,0,0,353.4,250c.17,3.2,5.17,3.22,5,0a181.76,181.76,0,0,1,.93-30.23c.37-3.19-4.63-3.16-5,0Z" transform="translate(-316.35 -172.53)"/><path class="cls-6" d="M369.38,219.45q.45,14.72,2.22,29.31c.38,3.16,5.38,3.19,5,0q-1.78-14.61-2.22-29.31c-.09-3.21-5.09-3.22-5,0Z" transform="translate(-316.35 -172.53)"/><path class="cls-6" d="M358.79,236.48l13.17-1.1c3.18-.26,3.21-5.26,0-5l-13.17,1.1c-3.18.26-3.21,5.26,0,5Z" transform="translate(-316.35 -172.53)"/><path class="cls-6" d="M386.4,244c5.08.3,12.57-3.34,11.35-9.53s-9-4.9-12.67-1.88c-4.24,3.51-5.7,9.41-2.35,14,3.94,5.44,11,5.46,16.56,2.66,2.87-1.45.34-5.77-2.53-4.32-2.55,1.3-5.67,1.9-8.26.34a5.05,5.05,0,0,1-2.36-6.08c.55-1.51,4-5.44,5.92-4.32.15.54.31,1.08.47,1.62a4.88,4.88,0,0,1-1.87,1.68,7.23,7.23,0,0,1-4.26.8c-3.21-.2-3.2,4.8,0,5Z" transform="translate(-316.35 -172.53)"/><path class="cls-6" d="M405,219.29c.11,9-.26,18.1.36,27,.33,4.68,3.47,9.23,8.54,6.56,2.85-1.5.33-5.81-2.52-4.32-.94.5-1.11-8-1.12-8.64,0-2.19,0-4.37-.08-6.56L410,219.29c0-3.21-5-3.22-5,0Z" transform="translate(-316.35 -172.53)"/><path class="cls-6" d="M416.48,219.4l.2,13.76c.06,4.27-.39,8.93.38,13.14.9,5,4.8,8.22,9.75,6.12,2.95-1.26.4-5.57-2.53-4.32s-2.58-13.43-2.6-14.94l-.2-13.76c-.05-3.21-5.05-3.22-5,0Z" transform="translate(-316.35 -172.53)"/><path class="cls-6" d="M442.43,229c-13.78-1.53-15.79,21.83-2.51,24.69,13.92,3,16.12-21,3.95-24.07-3.12-.78-4.45,4-1.33,4.83,6.41,1.61,5.73,16.75-2.29,14.16-7-2.24-5.5-15.46,2.18-14.61,3.2.35,3.17-4.65,0-5Z" transform="translate(-316.35 -172.53)"/><path class="cls-6" d="M468,248.64a89.92,89.92,0,0,1-2.28-26.41c.2-3.22-4.8-3.21-5,0A94.51,94.51,0,0,0,463.19,250c.74,3.13,5.56,1.8,4.82-1.33Z" transform="translate(-316.35 -172.53)"/><path class="cls-6" d="M466.54,257.13a3.29,3.29,0,0,0-2,4.73,2.66,2.66,0,0,0,2.7,1.22,3.3,3.3,0,0,0,2-5.49,2.47,2.47,0,0,0-1.77-.73,2.51,2.51,0,0,0-2.5,2.5,2.9,2.9,0,0,0,.74,1.76,2,2,0,0,1-.37-2.15,1.82,1.82,0,0,1,2-.79l1.75,1.75c-.19-.52,0,.73-.12,1a1.93,1.93,0,0,1-1.1,1,2.5,2.5,0,0,0-1.33-4.82Z" transform="translate(-316.35 -172.53)"/></g></g></svg>