<svg xmlns="http://www.w3.org/2000/svg" viewBox="0 0 240.45 284.82"><defs><style>.cls-1{isolation:isolate;}.cls-2{opacity:0.2;mix-blend-mode:multiply;}.cls-3{fill:#eaa86c;}.cls-4{fill:#4b9895;}.cls-5{opacity:0.5;}.cls-6{fill:#3d8327;}.cls-7{fill:#fff;}.cls-8{fill:#ffbc53;}.cls-9{fill:#ca9300;}.cls-10{fill:#ff5b3b;}.cls-11{fill:#005369;}</style></defs><g class="cls-1"><g id="圖層_1" data-name="圖層 1"><ellipse class="cls-2" cx="180.07" cy="277.03" rx="35.84" ry="7.79"/><ellipse class="cls-2" cx="46.18" cy="266.25" rx="25.53" ry="5.55"/><path class="cls-3" d="M572.35,288.53s-4.13,12.8.13,17.58,26.23-.3,33.45,6.12c2,1.77,3.54-.68,1.74-1.93a20.1,20.1,0,0,0-5-2.75c-8.26-3.58-23.35-5.65-20.85-8.26C591.7,289,578.75,283,572.35,288.53Z" transform="translate(-392.11 -229.37)"/><path class="cls-3" d="M545.39,301.13s-4.95,10.28-1.92,14.8,22.09,2.77,27.41,9c1.47,1.71,3.06-.17,1.69-1.43a16.77,16.77,0,0,0-3.87-2.88c-6.53-4-19-7.44-16.58-9.35C561.6,303.76,551.4,297.24,545.39,301.13Z" transform="translate(-392.11 -229.37)"/><path class="cls-4" d="M564.51,233.6a30.08,30.08,0,0,0-18.68-4,34.15,34.15,0,0,0-15.08,6.09,56.68,56.68,0,0,0-15.1,15.86,6.1,6.1,0,0,1-3.32,2.6c-1.38.6-2.68,1.16-3.32,3.2a4.09,4.09,0,0,1-.16.42c-.35.88-.61,1.51,1.58,5.48.64,1.17.52,3.49.37,6.42-.25,4.94-.59,11.69,2.19,18.68,3.28,8.26,10.32,14.93,20.92,19.84A49.8,49.8,0,0,0,565,311.94c8.16-1.67,14.48-5.19,16.29-7.65h0a12.75,12.75,0,0,1,6.34-4.58l.76-.23a13.61,13.61,0,0,0,4.15-1.71,12.87,12.87,0,0,0,2.69-3c2.8-3.82,0-8.89-1-10.36a7.67,7.67,0,0,1-.88-4.7c2.31-12,1.51-19.58-2.76-26.1C586,246.57,577.22,240.73,564.51,233.6Z" transform="translate(-392.11 -229.37)"/><g class="cls-5"><path class="cls-6" d="M556.85,272a.47.47,0,1,1-.66-.11A.48.48,0,0,1,556.85,272Z" transform="translate(-392.11 -229.37)"/><path class="cls-6" d="M556.57,272.24a.12.12,0,0,1-.19.13c-.09-.12.09-.25.19-.13.28.35.86-.06.57-.42a.83.83,0,1,0-1.34,1,.83.83,0,0,0,1.14.2.84.84,0,0,0,.2-1.17C556.89,271.43,556.32,271.85,556.57,272.24Z" transform="translate(-392.11 -229.37)"/><path class="cls-6" d="M557.18,267.84a.48.48,0,0,1-.1.66.48.48,0,1,1,.1-.66Z" transform="translate(-392.11 -229.37)"/><path class="cls-6" d="M556.89,268.05a.12.12,0,1,1-.19.13c-.09-.12.1-.25.19-.13.29.35.87-.06.58-.42a.83.83,0,0,0-1.35,1,.83.83,0,0,0,1.35-1C557.22,267.24,556.64,267.66,556.89,268.05Z" transform="translate(-392.11 -229.37)"/><path class="cls-6" d="M552.59,268.87a.44.44,0,1,1-.72.52.44.44,0,0,1,.1-.62A.45.45,0,0,1,552.59,268.87Z" transform="translate(-392.11 -229.37)"/><path class="cls-6" d="M552.3,269.08c.06.09-.08.19-.14.1s.07-.19.14-.1c.29.35.87-.06.57-.42a.8.8,0,0,0-1.11-.18.8.8,0,1,0,1.11.18C552.63,268.27,552.05,268.69,552.3,269.08Z" transform="translate(-392.11 -229.37)"/><path class="cls-6" d="M552.9,263.85a.48.48,0,1,1-.67-.11A.49.49,0,0,1,552.9,263.85Z" transform="translate(-392.11 -229.37)"/><path class="cls-6" d="M552.61,264.06a.12.12,0,0,1-.19.14.12.12,0,0,1,.19-.14c.28.36.86-.06.57-.42a.83.83,0,1,0-.2,1.17.84.84,0,0,0,.2-1.17C552.93,263.25,552.36,263.67,552.61,264.06Z" transform="translate(-392.11 -229.37)"/><path class="cls-6" d="M561.71,259.76a.51.51,0,0,1-.11.7.52.52,0,0,1-.71-.11.5.5,0,0,1,.12-.7A.49.49,0,0,1,561.71,259.76Z" transform="translate(-392.11 -229.37)"/><path class="cls-6" d="M561.42,260a.15.15,0,0,1-.24.17.15.15,0,0,1,.24-.17c.29.35.87-.06.58-.42a.87.87,0,0,0-1.2-.19.85.85,0,1,0,1.2.19C561.75,259.16,561.17,259.58,561.42,260Z" transform="translate(-392.11 -229.37)"/><path class="cls-6" d="M565.62,265.55a.44.44,0,1,1-.72.52.44.44,0,0,1,.72-.52Z" transform="translate(-392.11 -229.37)"/><path class="cls-6" d="M565.33,265.76a.09.09,0,1,1-.14.1c-.07-.09.07-.18.14-.1.29.36.87-.06.58-.42a.82.82,0,0,0-1.12-.17.8.8,0,0,0,.92,1.31.82.82,0,0,0,.2-1.14C565.66,265,565.08,265.38,565.33,265.76Z" transform="translate(-392.11 -229.37)"/><path class="cls-6" d="M565.18,276.34a.68.68,0,0,1-.15,1,.68.68,0,0,1-.8-1.1A.68.68,0,0,1,565.18,276.34Z" transform="translate(-392.11 -229.37)"/><path class="cls-6" d="M564.89,276.55c.23.35-.28.72-.52.38s.26-.7.52-.38.87-.06.58-.42a1,1,0,1,0-.26,1.47,1,1,0,0,0,.26-1.47C565.22,275.74,564.64,276.16,564.89,276.55Z" transform="translate(-392.11 -229.37)"/><path class="cls-6" d="M558,278.55a.32.32,0,1,1-.45-.07A.31.31,0,0,1,558,278.55Z" transform="translate(-392.11 -229.37)"/><path class="cls-6" d="M557.71,278.76s0,0,0,0,0-.07,0,0v0s0,0,0,0,0,0,0,0,.07,0,0,0h0s0-.05,0,0,0,0,0,0a.11.11,0,0,1,0,.05c0-.1,0,0,0,0h0s0,0,0,0,0,.05,0,0a.36.36,0,0,0,.58-.42.68.68,0,0,0-.95-.15.68.68,0,0,0-.15.95.68.68,0,1,0,1.1-.8.36.36,0,0,0-.5-.08A.37.37,0,0,0,557.71,278.76Z" transform="translate(-392.11 -229.37)"/><path class="cls-6" d="M551.64,276a.59.59,0,1,1-.83-.13A.6.6,0,0,1,551.64,276Z" transform="translate(-392.11 -229.37)"/><path class="cls-6" d="M551.35,276.24c.16.26-.2.53-.38.28a.24.24,0,0,1,.38-.28c.29.36.87-.06.58-.42a1,1,0,0,0-1.54,1.12,1,1,0,0,0,1.3.23,1,1,0,0,0,.24-1.35C551.68,275.44,551.1,275.86,551.35,276.24Z" transform="translate(-392.11 -229.37)"/><path class="cls-6" d="M547.25,259.2a.68.68,0,1,1-1-.15A.68.68,0,0,1,547.25,259.2Z" transform="translate(-392.11 -229.37)"/><path class="cls-6" d="M547,259.41c.23.35-.28.72-.52.38s.26-.7.52-.38.87-.06.58-.42a1,1,0,1,0-.26,1.47,1,1,0,0,0,.26-1.47C547.29,258.6,546.71,259,547,259.41Z" transform="translate(-392.11 -229.37)"/><path class="cls-6" d="M547.05,267.4a.56.56,0,0,1-.12.78.57.57,0,0,1-.79-.12.56.56,0,0,1,.13-.79A.55.55,0,0,1,547.05,267.4Z" transform="translate(-392.11 -229.37)"/><path class="cls-6" d="M546.76,267.61a.2.2,0,0,1-.33.24.2.2,0,0,1,.33-.24c.29.35.87-.07.58-.42a.92.92,0,1,0-.23,1.3.93.93,0,0,0,.23-1.3C547.09,266.8,546.51,267.22,546.76,267.61Z" transform="translate(-392.11 -229.37)"/></g><path d="M522.91,265s-1-.84-1.66,1-1.36,6.7-.11,6.78,1.81-4,1.81-4S523.39,265.41,522.91,265Z" transform="translate(-392.11 -229.37)"/><path class="cls-7" d="M513,259c.83,3.11,3.11,7.53,7,6.4.74-.22.57-1-.18-.8-3.11.91-5-3.52-5.58-5.89-.15-.53-1.38-.24-1.24.29Z" transform="translate(-392.11 -229.37)"/><path class="cls-7" d="M514.76,255.27c.16,3.76,1.36,9.6,5.88,10.14.63.08,1.27-.81.45-.91-4-.48-5-6.24-5.08-9.27,0-.66-1.27-.54-1.25,0Z" transform="translate(-392.11 -229.37)"/><path class="cls-7" d="M517.74,253.74c-.73,4-.77,10.69,4.19,11.91.46.12,1.47-.56.75-.73-4.56-1.13-4.37-7.58-3.7-11.25.1-.56-1.15-.42-1.24.07Z" transform="translate(-392.11 -229.37)"/><path d="M542,264.81s-1-.84-1.65,1-1.36,6.71-.12,6.79,1.81-4,1.81-4S542.5,265.18,542,264.81Z" transform="translate(-392.11 -229.37)"/><path class="cls-7" d="M532.12,258.75c.84,3.11,3.11,7.53,7,6.4.74-.22.58-1-.18-.8-3.11.91-5-3.53-5.58-5.89-.14-.53-1.38-.25-1.24.29Z" transform="translate(-392.11 -229.37)"/><path class="cls-7" d="M533.88,255c.15,3.76,1.35,9.6,5.88,10.14.62.07,1.27-.82.44-.91-4-.48-5-6.24-5.08-9.27,0-.66-1.27-.54-1.24,0Z" transform="translate(-392.11 -229.37)"/><path class="cls-7" d="M536.85,253.51c-.73,4-.76,10.69,4.19,11.91.47.11,1.47-.56.75-.73-4.56-1.13-4.36-7.59-3.7-11.25.11-.57-1.15-.42-1.24.07Z" transform="translate(-392.11 -229.37)"/><path class="cls-7" d="M516,280.79c-.7-.26-1.4-.55-2.08-.86-.49-.22-1-.45-1.45-.72a4.24,4.24,0,0,1-.79-.72c.15.14-.39.09.08.14a1.77,1.77,0,0,0,.32-.05,6.77,6.77,0,0,1,.78,0c.64,0,1.28.09,1.91.17.88.11,1.75.25,2.62.42.12,0,.41-.43.31-.45-1.12-.22-2.26-.4-3.4-.51-.75-.08-2.35-.41-2.87.39-.68,1.05,3.46,2.37,4.21,2.65.14,0,.41-.42.36-.44Z" transform="translate(-392.11 -229.37)"/><path class="cls-7" d="M548,287.94c-.87-.45-1.74-.94-2.59-1.45a20.21,20.21,0,0,1-1.84-1.22,4.3,4.3,0,0,1-.68-.6c-.09-.1-.31-.51-.34-.38s.1,0,.28,0l.39,0a9.32,9.32,0,0,1,1,.09,25.13,25.13,0,0,1,2.71.58c1.11.28,2.22.6,3.32,1,.14.05.41-.43.36-.44-1.39-.46-2.8-.86-4.22-1.19-1-.22-3.24-1-4-.07-1,1.24,4.35,3.74,5.22,4.2.13.06.44-.41.36-.45Z" transform="translate(-392.11 -229.37)"/><path class="cls-3" d="M430.37,382.89s2.82,13.15-1.9,17.48-26.07-2.94-33.9,2.72c-2.15,1.56-3.45-1-1.53-2.1a19.74,19.74,0,0,1,5.23-2.23c8.58-2.73,23.8-3.27,21.58-6.11C411.07,381.42,424.56,376.77,430.37,382.89Z" transform="translate(-392.11 -229.37)"/><path class="cls-3" d="M455.93,398.15s3.88,10.73.41,14.92-22.25.52-28.18,6.18c-1.63,1.56-3-.47-1.53-1.58a16.38,16.38,0,0,1,4.13-2.48c6.91-3.28,19.64-5.49,17.44-7.63C439.53,399.14,450.34,393.68,455.93,398.15Z" transform="translate(-392.11 -229.37)"/><path class="cls-8" d="M496.86,331.84c-2.67-9.72-7.43-17.08-10.55-19.07h0a15.53,15.53,0,0,1-6.05-7.29c-.13-.32-.24-.62-.35-.9-1.61-4.23-2-5.24-6.18-7.89-4.84-3.07-10.73.75-12.43,2a9.33,9.33,0,0,1-5.63,1.44c-14.71-1.82-23.78-.24-31.31,5.44-8.18,6.18-14.53,17.29-22.12,33.23-3.67,7.7-4.79,15.4-3.34,22.89a41.37,41.37,0,0,0,8.57,17.74,69,69,0,0,0,20.4,17,7.3,7.3,0,0,1,3.41,3.8c.83,1.62,1.62,3.14,4.13,3.75.19,0,.36.1.53.15a3,3,0,0,0,1,.22c.89,0,2.25-.51,5.44-2.56,1.37-.87,4.18-.92,7.75-1,6-.1,14.17-.23,22.4-4.15a37.76,37.76,0,0,0,12-9.2,58.44,58.44,0,0,0,10.25-17.69A60.27,60.27,0,0,0,496.86,331.84Z" transform="translate(-392.11 -229.37)"/><g class="cls-5"><path class="cls-9" d="M443.93,337.51a.48.48,0,1,1-.48-.47A.47.47,0,0,1,443.93,337.51Z" transform="translate(-392.11 -229.37)"/><path class="cls-9" d="M443.57,337.51a.12.12,0,1,1-.23,0,.12.12,0,0,1,.23,0c0,.46.74.46.72,0a.86.86,0,0,0-.84-.83.85.85,0,0,0-.83.83.84.84,0,0,0,.81.83.85.85,0,0,0,.86-.83C444.31,337.05,443.6,337.06,443.57,337.51Z" transform="translate(-392.11 -229.37)"/><path class="cls-9" d="M446.65,334.32a.47.47,0,1,1-.47-.48A.47.47,0,0,1,446.65,334.32Z" transform="translate(-392.11 -229.37)"/><path class="cls-9" d="M446.3,334.32a.12.12,0,0,1-.24,0,.12.12,0,1,1,.24,0c0,.45.74.46.71,0a.83.83,0,1,0-.86.83.85.85,0,0,0,.86-.83C447,333.86,446.32,333.86,446.3,334.32Z" transform="translate(-392.11 -229.37)"/><path class="cls-9" d="M442.33,332.45a.45.45,0,1,1-.44-.44A.44.44,0,0,1,442.33,332.45Z" transform="translate(-392.11 -229.37)"/><path class="cls-9" d="M442,332.45a.09.09,0,0,1-.17,0,.09.09,0,0,1,.17,0c0,.46.74.46.72,0a.81.81,0,1,0-.83.8.82.82,0,0,0,.83-.8C442.71,332,442,332,442,332.45Z" transform="translate(-392.11 -229.37)"/><path class="cls-9" d="M445.53,328.57a.48.48,0,1,1-.48-.47A.47.47,0,0,1,445.53,328.57Z" transform="translate(-392.11 -229.37)"/><path class="cls-9" d="M445.17,328.57a.12.12,0,0,1-.23,0,.12.12,0,0,1,.23,0c0,.46.74.46.72,0a.86.86,0,0,0-.84-.83.83.83,0,1,0,.84.83C445.91,328.11,445.2,328.11,445.17,328.57Z" transform="translate(-392.11 -229.37)"/><path class="cls-9" d="M455.06,330.44a.5.5,0,1,1-.5-.51A.5.5,0,0,1,455.06,330.44Z" transform="translate(-392.11 -229.37)"/><path class="cls-9" d="M454.71,330.44c0,.18-.3.19-.3,0a.15.15,0,0,1,.3,0c0,.45.74.46.71,0a.86.86,0,1,0-1.72,0,.86.86,0,0,0,1.72,0C455.45,330,454.73,330,454.71,330.44Z" transform="translate(-392.11 -229.37)"/><path class="cls-9" d="M454.83,337.42a.45.45,0,1,1-.45-.44A.45.45,0,0,1,454.83,337.42Z" transform="translate(-392.11 -229.37)"/><path class="cls-9" d="M454.47,337.42a.09.09,0,1,1-.17,0c0-.11.16-.11.17,0,0,.46.74.47.71,0a.8.8,0,1,0-1.6,0,.8.8,0,1,0,1.6,0C455.21,337,454.49,337,454.47,337.42Z" transform="translate(-392.11 -229.37)"/><path class="cls-9" d="M448.13,345.9a.68.68,0,1,1-1.36,0,.68.68,0,1,1,1.36,0Z" transform="translate(-392.11 -229.37)"/><path class="cls-9" d="M447.78,345.9a.33.33,0,0,1-.65,0,.33.33,0,0,1,.65,0c0,.45.74.46.71,0a1,1,0,1,0-1.07,1,1.05,1.05,0,0,0,1.07-1C448.52,345.44,447.8,345.44,447.78,345.9Z" transform="translate(-392.11 -229.37)"/><path class="cls-9" d="M441,343.47a.33.33,0,0,1-.66,0,.33.33,0,0,1,.66,0Z" transform="translate(-392.11 -229.37)"/><path class="cls-9" d="M440.67,343.47s0,0,0,0,0-.05,0,0,0,0,0,0-.05,0,0,0h0s.06,0,0,0,0,0,0,0,0-.06,0,0,0,0,0,0l0,0c.07-.08,0,0,0,0h0l0,0s0,0,0,0,0,.07,0,0a.36.36,0,0,0,.36.35.35.35,0,0,0,.35-.35.68.68,0,1,0-.7.68.7.7,0,0,0,.7-.68.36.36,0,1,0-.71,0Z" transform="translate(-392.11 -229.37)"/><path class="cls-9" d="M437.35,337.69a.59.59,0,1,1-.59-.59A.58.58,0,0,1,437.35,337.69Z" transform="translate(-392.11 -229.37)"/><path class="cls-9" d="M437,337.69a.24.24,0,0,1-.47,0,.24.24,0,0,1,.47,0c0,.46.74.46.71,0a1,1,0,1,0-1,.95,1,1,0,0,0,1-.95C437.74,337.23,437,337.23,437,337.69Z" transform="translate(-392.11 -229.37)"/><path class="cls-9" d="M443.69,321.49a.68.68,0,1,1-.68-.68A.67.67,0,0,1,443.69,321.49Z" transform="translate(-392.11 -229.37)"/><path class="cls-9" d="M443.33,321.49a.32.32,0,0,1-.64,0,.32.32,0,0,1,.64,0c0,.46.74.46.72,0a1,1,0,1,0-1.08,1,1.06,1.06,0,0,0,1.08-1C444.07,321,443.36,321,443.33,321.49Z" transform="translate(-392.11 -229.37)"/><path class="cls-9" d="M438.72,328a.57.57,0,0,1-.57.56.56.56,0,0,1-.56-.56.57.57,0,0,1,.56-.57A.58.58,0,0,1,438.72,328Z" transform="translate(-392.11 -229.37)"/><path class="cls-9" d="M438.36,328a.21.21,0,0,1-.41,0,.21.21,0,0,1,.41,0c0,.45.74.46.71,0a.92.92,0,1,0-.95.92.93.93,0,0,0,.95-.92C439.1,327.55,438.38,327.55,438.36,328Z" transform="translate(-392.11 -229.37)"/></g><path d="M478.68,341.57s1.29-.3,1.05,1.66-1.66,6.64-2.82,6.18S477,345,477,345,478.09,341.7,478.68,341.57Z" transform="translate(-392.11 -229.37)"/><path class="cls-7" d="M490.22,340.36c-2.09,2.45-6,5.47-9.07,2.77-.57-.51-.08-1.17.51-.64,2.41,2.15,6-1.06,7.57-2.92.36-.42,1.35.37,1,.79Z" transform="translate(-392.11 -229.37)"/><path class="cls-7" d="M490.24,336.26c-1.76,3.33-5.35,8.08-9.67,6.63-.6-.2-.8-1.29,0-1,3.79,1.28,7.15-3.5,8.57-6.18.31-.59,1.37.06,1.11.57Z" transform="translate(-392.11 -229.37)"/><path class="cls-7" d="M488.21,333.6c-1.08,4-3.91,10-8.9,8.95-.48-.1-1.09-1.13-.37-1,4.6.95,7.2-5,8.18-8.56.15-.55,1.22.11,1.09.6Z" transform="translate(-392.11 -229.37)"/><path d="M461.52,333.15s1.3-.31,1.05,1.65-1.65,6.64-2.81,6.18.07-4.37.07-4.37S460.93,333.27,461.52,333.15Z" transform="translate(-392.11 -229.37)"/><path class="cls-7" d="M473.07,331.93C471,334.39,467,337.4,464,334.7c-.58-.51-.08-1.16.5-.64,2.42,2.15,6-1.06,7.57-2.92.36-.42,1.35.37,1,.79Z" transform="translate(-392.11 -229.37)"/><path class="cls-7" d="M473.08,327.83c-1.76,3.33-5.35,8.08-9.67,6.63-.59-.2-.8-1.29,0-1,3.79,1.28,7.16-3.5,8.57-6.18.31-.59,1.38.06,1.11.57Z" transform="translate(-392.11 -229.37)"/><path class="cls-7" d="M471.05,325.17c-1.08,4-3.9,10-8.9,8.95-.47-.09-1.09-1.13-.36-1,4.6.94,7.2-5,8.17-8.57.15-.55,1.22.12,1.09.6Z" transform="translate(-392.11 -229.37)"/><path class="cls-7" d="M456.61,364.51c.74.65,1.46,1.33,2.16,2a17.14,17.14,0,0,1,1.57,1.73c.18.23.74.85.58,1.19,0,.1.19,0-.13,0a1.61,1.61,0,0,1-.37-.07,8.3,8.3,0,0,1-1.21-.44,25.61,25.61,0,0,1-2.35-1.16c-1-.54-1.95-1.1-2.9-1.69-.12-.08-.57.14-.52.18,1.24.78,2.51,1.51,3.81,2.17.89.46,2.88,1.73,4,1.11s-3.45-4.69-4.08-5.25c-.1-.09-.59.13-.52.19Z" transform="translate(-392.11 -229.37)"/><path class="cls-7" d="M482.19,365.76c.74.65,1.46,1.33,2.16,2a17.14,17.14,0,0,1,1.57,1.73c.18.23.74.85.58,1.2,0,.09.19,0-.13,0a1.21,1.21,0,0,1-.37-.07,8.3,8.3,0,0,1-1.21-.44c-.8-.34-1.58-.74-2.35-1.16-1-.54-1.95-1.1-2.9-1.69-.12-.08-.57.15-.52.18,1.24.78,2.51,1.51,3.81,2.17.89.46,2.89,1.73,4,1.11s-3.45-4.69-4.08-5.25c-.1-.09-.59.13-.52.19Z" transform="translate(-392.11 -229.37)"/><path class="cls-3" d="M563.65,472.65s.8,11.63,5.77,14.1,21-8.7,28.88-5.86c2.16.78,2.63-1.69.77-2.12a17.18,17.18,0,0,0-4.88-.6c-7.81-.22-20.61,3-19.44.08C579.36,466.8,567,466.16,563.65,472.65Z" transform="translate(-392.11 -229.37)"/><path class="cls-3" d="M550.16,472.07s-.06,9.89,4,12.29,18.31-6,24.8-3.13c1.78.8,2.33-1.26.79-1.74a14.64,14.64,0,0,0-4.1-.82c-6.59-.68-17.62,1.22-16.45-1.16C563.83,468.11,553.42,466.79,550.16,472.07Z" transform="translate(-392.11 -229.37)"/><path class="cls-10" d="M632.32,408.87c-.54-5.55-2.31-10.87-4.18-16.09a59.24,59.24,0,0,0-6.39-13.33,35.8,35.8,0,0,0-9.8-9.75,57,57,0,0,0-15.55-6.89,157.71,157.71,0,0,0-23.7-4.69c-5.1-.69-10.22-1.24-15.34-1.72h-.07a43.24,43.24,0,0,0-6.53.53,55.46,55.46,0,0,0-14.31,3.93,37.57,37.57,0,0,0-14.66,10.9,33,33,0,0,0-5.11,9.2,54.82,54.82,0,0,0-2.37,10.44c-1,6.07-1.82,12.17-2.28,18.3a105,105,0,0,0,.13,19.18,59.94,59.94,0,0,0,4.57,17.91,43.64,43.64,0,0,0,11,15.1A54,54,0,0,0,547,472.44a79.18,79.18,0,0,0,26.27,3.92,60.05,60.05,0,0,0,22.35-4.82A57.53,57.53,0,0,0,612.78,460a64.35,64.35,0,0,0,11.88-15.93,68.29,68.29,0,0,0,6.55-17.93A57.2,57.2,0,0,0,632.32,408.87Z" transform="translate(-392.11 -229.37)"/><path class="cls-11" d="M593.88,357.05a.44.44,0,0,0-.27-.43c-2.07-1.21-11.61-.16-13.22,0,1.13-1.27,6.46-7.34,5.83-8.25a.79.79,0,0,0-.59-.33c-2.24-.2-8.82,6.1-9.71,7-.39-1-3.13-7.89-5.55-9.4-.35-.21-.63-.24-.84-.08-.53.38-.56,2-.1,4.7.29,1.69.69,3.32.81,3.81-1.21-.44-8.94-3.15-10.47-1.73a.48.48,0,0,0-.15.47c.14.67,1.74,1.68,4.76,3,1.84.79,3.68,1.46,4.28,1.67-.61.27-2.54,1.11-4.45,2.05-4.68,2.31-4.68,2.95-4.69,3.16a.37.37,0,0,0,.27.34c1.75.77,8.39-1.71,9.72-2.22-.82,1.39-4.42,7.62-4.08,8.57a.23.23,0,0,0,.14.15l.08,0c1.09,0,6.1-5.51,7.27-6.82-.17,1.18-.75,5.84.65,8.36.19.36.4.54.62.54h.08c1.22-.25,2-6.82,2.14-8.22a17.55,17.55,0,0,0,7.66,4.46c.95.27,1.49.25,1.67-.07.61-1.1-4-5.42-5-6.3C582.65,361,593.65,358.5,593.88,357.05Z" transform="translate(-392.11 -229.37)"/><path d="M542,399.1s-.66-1-1.64.46-2.79,5.22-1.78,5.6,2.49-2.85,2.49-2.85S542.25,399.52,542,399.1Z" transform="translate(-392.11 -229.37)"/><path class="cls-7" d="M535.23,391.61c-.08,2.79.71,7,4.22,7.05.67,0,.73-.7,0-.71-2.81,0-3.24-4.15-3.18-6.27,0-.48-1.08-.55-1.09-.07Z" transform="translate(-392.11 -229.37)"/><path class="cls-7" d="M537.6,389c-.8,3.16-1.25,8.3,2.37,9.87.5.22,1.26-.36.6-.64-3.18-1.38-2.57-6.41-1.92-9,.14-.55-.92-.76-1-.27Z" transform="translate(-392.11 -229.37)"/><path class="cls-7" d="M540.45,388.44c-1.61,3.17-3.28,8.68.53,10.92.36.21,1.36-.1.8-.42-3.51-2.07-1.74-7.38-.28-10.26.22-.44-.85-.63-1-.24Z" transform="translate(-392.11 -229.37)"/><path d="M557.87,403.64s-.65-.95-1.63.46-2.79,5.23-1.78,5.61,2.49-2.85,2.49-2.85S558.18,404.07,557.87,403.64Z" transform="translate(-392.11 -229.37)"/><path class="cls-7" d="M551.16,396.16c-.08,2.79.71,7,4.22,7,.67,0,.73-.7,0-.7-2.81,0-3.24-4.16-3.18-6.27,0-.48-1.08-.55-1.09-.07Z" transform="translate(-392.11 -229.37)"/><path class="cls-7" d="M553.53,393.51c-.8,3.16-1.26,8.31,2.37,9.88.5.22,1.26-.36.6-.65-3.18-1.38-2.57-6.41-1.92-8.95.14-.56-.93-.76-1.05-.28Z" transform="translate(-392.11 -229.37)"/><path class="cls-7" d="M556.38,393c-1.61,3.17-3.29,8.68.53,10.93.35.21,1.35-.1.8-.43-3.51-2.06-1.74-7.37-.28-10.25.22-.44-.85-.64-1-.25Z" transform="translate(-392.11 -229.37)"/><path class="cls-7" d="M578.53,418.19c.23-.89.49-1.76.78-2.62a15.76,15.76,0,0,1,.68-1.77c.1-.2.23-.38.33-.58l.1-.14c.12-.09.11-.11,0-.05a.43.43,0,0,1,.15.2,19.4,19.4,0,0,1,.15,6.8c0,.05.47,0,.48-.12.12-1.23.18-2.47.19-3.7,0-.62.23-3.24-.7-3.38s-1.38,1.6-1.59,2.17c-.39,1.07-.72,2.17-1,3.28,0,.08.45,0,.47-.09Z" transform="translate(-392.11 -229.37)"/><path class="cls-7" d="M517.21,412c-.09-.85-.16-1.71-.2-2.57a17.57,17.57,0,0,1,0-1.92c0-.29.09-.57.12-.85a1.43,1.43,0,0,1,.08-.22c0-.09-.18-.11,0,0,.94.81,1.35,2.37,1.74,3.5.33.94.64,1.9.9,2.86,0,.09.51,0,.48-.13-.34-1.22-.73-2.43-1.17-3.61-.25-.68-.87-3-1.88-2.85s-.74,1.86-.73,2.48c0,1.14.1,2.29.22,3.42,0,.07.49,0,.48-.13Z" transform="translate(-392.11 -229.37)"/></g></g></svg>