<svg id="圖層_1" data-name="圖層 1" xmlns="http://www.w3.org/2000/svg" viewBox="0 0 47.57 38.85">
  <defs>
    <style>
      .cls-1 {
        fill: #4e9fff;
      }

      .cls-2 {
        fill: #202b3f;
      }
    </style>
  </defs>
  <path class="cls-1" d="M307.45,437.1a5.51,5.51,0,0,0-4.93,1.11,3.43,3.43,0,0,1-4.71.14c-1.46-1.05-3.52-1.85-4.92-.79-4,3.05-7.2.17-10.35-1.34-2.11-1-3.7-2.3-6.22-1.16-2.71,1.22-3.32-.56-2.33-2.53,2.6-5.15,2.69-10.77,3.65-16.24,1.7-9.71,9.66-16,19.8-15.92s17.83,6.33,19.51,16.21c.9,5.31.93,10.78,3.62,15.72.89,1.62,1,4-2,2.85a5.61,5.61,0,0,0-6.62,1.33C310.65,437.69,309,437.39,307.45,437.1ZM295.3,420.29a3,3,0,0,0-2.81-3,2.93,2.93,0,1,0-.45,5.85C293.85,423.36,294.84,422.14,295.3,420.29Zm10.24.18a2.94,2.94,0,0,0-2.82-3,2.74,2.74,0,0,0-3.12,2.74,2.79,2.79,0,0,0,2.77,3.12C304.17,423.42,305.2,422.32,305.54,420.47Z" transform="translate(-273.55 -400.37)"/>
  <path class="cls-2" d="M295.3,420.29c-.46,1.85-1.45,3.07-3.26,2.88a2.93,2.93,0,1,1,.45-5.85A3,3,0,0,1,295.3,420.29Z" transform="translate(-273.55 -400.37)"/>
  <path class="cls-2" d="M305.54,420.47c-.34,1.85-1.37,2.95-3.17,2.82a2.79,2.79,0,0,1-2.77-3.12,2.74,2.74,0,0,1,3.12-2.74A2.94,2.94,0,0,1,305.54,420.47Z" transform="translate(-273.55 -400.37)"/>
</svg>
