<svg id="圖層_1" data-name="圖層 1" xmlns="http://www.w3.org/2000/svg" viewBox="0 0 147.95 17.98">
  <defs>
    <style>
      .cls-1 {
        fill: #f7f4f9;
      }
    </style>
  </defs>
  <path class="cls-1" d="M441.94,207.72c-7.3,0-11.15-3.33-14.25-6-2.74-2.37-4.72-4.09-9.09-4.09s-6.35,1.72-9.09,4.09c-3.09,2.67-6.95,6-14.25,6s-11.16-3.33-14.25-6c-2.75-2.37-4.73-4.09-9.09-4.09s-6.35,1.72-9.09,4.09c-3.1,2.67-6.95,6-14.25,6s-11.16-3.33-14.25-6c-2.75-2.37-4.73-4.09-9.09-4.09a3.95,3.95,0,1,1,0-7.89c7.3,0,11.15,3.32,14.25,6,2.74,2.37,4.72,4.08,9.09,4.08s6.34-1.71,9.09-4.08c3.09-2.68,6.94-6,14.25-6s11.15,3.32,14.25,6c2.74,2.37,4.72,4.08,9.09,4.08s6.35-1.71,9.09-4.08c3.09-2.68,6.95-6,14.25-6s11.16,3.32,14.25,6c2.75,2.37,4.73,4.08,9.09,4.08s6.35-1.71,9.09-4.08c3.1-2.68,7-6,14.26-6a3.95,3.95,0,1,1,0,7.89c-4.37,0-6.35,1.72-9.09,4.09C453.1,204.39,449.25,207.72,441.94,207.72Z" transform="translate(-321.29 -189.74)"/>
</svg>
