<svg id="圖層_1" data-name="圖層 1" xmlns="http://www.w3.org/2000/svg" viewBox="0 0 595.28 420.94">
  <defs>
    <style>
      .cls-1 {
        fill: #50bcae;
      }

      .cls-2, .cls-4, .cls-6 {
        fill: #fff;
      }

      .cls-3 {
        fill: #ebd367;
      }

      .cls-4, .cls-6 {
        stroke: #fff;
      }

      .cls-4 {
        stroke-miterlimit: 10;
        stroke-width: 0.89px;
      }

      .cls-5 {
        fill: #2d2723;
      }

      .cls-6 {
        stroke-linecap: round;
        stroke-linejoin: round;
        stroke-width: 5.04px;
      }
    </style>
  </defs>
  <g>
    <g>
      <path class="cls-1" d="M197.41,286.21c8.23-15,20.55-28.36,36.45-34.13a68.24,68.24,0,0,1,35-3.13c10.68,1.84,21.19,7.95,32,8.21,29,.7,56.9-29,72.24-57.6,10.31-19.27,14.49-42.37,26.59-60.31,13.73-20.36,41.37-25.83,63.4-16.87,33.68,13.69,34.15,49.55,28.69,79.85-3.89,21.55-7.76,44.32-19.84,63.06-12.82,19.87-35.83,37.29-57.4,46.47-16,6.82-34.56,7.67-51.77,6.65-19.68-1.16-31-8.05-45.61-20.45-18.73-15.87-48.35-13.94-70.45-6.64-23.18,7.66-43.35,24-53.76,46.31-6.7,14.35-7.63-9.54-7.05-14.14.89-7.1,2.1-14.65,4.45-21.44A103.77,103.77,0,0,1,197.41,286.21Z"/>
      <path class="cls-2" d="M425.82,152.92a2.16,2.16,0,0,0-.88-1.07c-4.27-2.53-8,11.58-8.1,14.57-.13,6.32,4.59,4.78,6.37.81a44.07,44.07,0,0,0,2.73-10.72A7.22,7.22,0,0,0,425.82,152.92Z"/>
      <path class="cls-2" d="M464.58,163.25a2.13,2.13,0,0,0-.88-1.08c-4.26-2.53-8,11.58-8.1,14.57-.13,6.33,4.59,4.78,6.37.81a43.65,43.65,0,0,0,2.73-10.71A7.22,7.22,0,0,0,464.58,163.25Z"/>
    </g>
    <path class="cls-3" d="M174.08,125.77h98.08c11.84,0,16.65,5.05,16.84,17.05.2,12.77-5,22.1-15.6,28.68-16.69,10.34-31.15,23.51-44.66,37.88-30.44,32.37-79.63,24.48-99.92-15.4-7.71-15.13-17.52-29.11-27.24-43-5.11-7.31-12.83-10.31-21.56-10.59-6.13-.19-10.41-4.65-10.85-10.73-.22-3,.65-4,3.68-4,14.7.15,29.39.07,44.09.07Z"/>
    <path class="cls-3" d="M108.05,121c7.83-6.58,16.42-11.33,26.8-11.36q65.58-.17,131.17,0a14.13,14.13,0,0,1,13.36,9.52c.55,1.75.37,2.72-1.74,2.54-.58,0-1.17,0-1.75,0q-82,0-164,0C110.64,121.68,109.31,122.15,108.05,121Zm55.45-4.89v-1.23a103.45,103.45,0,0,0-13.06.11l0,1.12Z"/>
    <g>
      <path class="cls-3" d="M324.66,347.42c-11.66,0-23.32-.08-35,.06-3.05,0-3.67-.88-2.67-3.65,1.62-4.5,4.29-6.61,9.12-6.62,15.5,0,31-.1,46.51.06,3.13,0,3.91-.9,3.88-3.95-.15-15.74-.08-31.48,0-47.21,0-1.08-.56-2.67.93-3a13.64,13.64,0,0,1,5.49-.4c1.13.19.54,1.84.55,2.81,0,15.86.08,31.71,0,47.57,0,2.92.4,4.34,3.88,4.33,4,0,6.77,4.89,5.52,8.84-.59,1.84-2.06,1.21-3.2,1.22-11.65,0-23.31,0-35,0Z"/>
      <path class="cls-3" d="M315.54,308.57c0-7.11.14-14.23-.06-21.33-.1-3.66,2.38-2.53,4.24-2.82,2.15-.34,2.85.5,2.84,2.66-.07,14.46-.11,28.91,0,43.37,0,3.48-2.24,2.36-4,2.58-2.12.25-3.16-.31-3.11-2.78C315.63,323,315.53,315.8,315.54,308.57Z"/>
      <path class="cls-3" d="M285.8,337.19c-1.85,3-3.1,5.64-3.43,8.55-.19,1.7-1.27,1.69-2.47,1.68q-13.8,0-27.61,0c-1.38,0-2.18-.22-2-1.95.56-4.38,4.22-8.19,8.57-8.25C267.63,337.11,276.37,337.19,285.8,337.19Z"/>
    </g>
    <path class="cls-4" d="M257.87,110a20.54,20.54,0,0,1,2.32-4.7,48.72,48.72,0,0,1,24.33-19,39.22,39.22,0,0,1,22.81-.24S334,91.6,338.27,120.81c0,0,6,25.55-12.89,42-7.72,6.72-16.1,9.5-24.7,14.82-16.27,10-44.84,36.81-35.46,60,0,0,13.75-30.13,44.69-38.34,0,0,55-21.91,107.42,9.12,31.73,18.79,67.79,55.19,65.57,97.29-42.75-13.92-86.22-4.79-129.23,2.62-31.12,5.36-71.35,11-99.7-7.35-20.33-13.16-29.95-32-30.87-57,0,0-1.29-35.15,35.67-65.27,0,0,27.5-21,22.34-43.81a24.59,24.59,0,0,0-3.51-.8,45.71,45.71,0,0,1-8-3c-4.38-2.14-8.7-5.34-11-10A14.24,14.24,0,0,1,257.87,110Z"/>
    <path class="cls-5" d="M294.88,106.39a2.23,2.23,0,0,0-1.29-.68c-5.35-.76-4.53,13.94-3.58,16.78,2,6,6.45,2.75,7-1.65a40.36,40.36,0,0,0-.77-11.12A6.56,6.56,0,0,0,294.88,106.39Z"/>
    <path class="cls-6" d="M318.39,103.78s23.5,1.68,28.54-15.1c0,0-5,28.53-23.5,26.85Z"/>
  </g>
</svg>
