<svg id="圖層_1" data-name="圖層 1" xmlns="http://www.w3.org/2000/svg" viewBox="0 0 243.3 143.5">
  <defs>
    <style>
      .cls-1, .cls-2 {
        fill: #fff;
      }

      .cls-1, .cls-3, .cls-4 {
        stroke: #fff;
        stroke-miterlimit: 10;
      }

      .cls-1 {
        stroke-width: 0.83px;
      }

      .cls-3, .cls-4 {
        fill: none;
      }

      .cls-3 {
        stroke-width: 2px;
      }

      .cls-4 {
        stroke-linecap: round;
        stroke-width: 1.61px;
      }

      .cls-5 {
        fill: #e388b6;
      }
    </style>
  </defs>
  <g>
    <g>
      <path class="cls-1" d="M233.2,393.4v12.27h-2.3l-4.63-10.19v9.36a.78.78,0,0,1-.25.59.84.84,0,0,1-.61.24.81.81,0,0,1-.6-.24.78.78,0,0,1-.25-.59V392.55h2.26l4.65,10.17V393.4a.79.79,0,0,1,.26-.6.84.84,0,0,1,.61-.25.81.81,0,0,1,.61.25A.79.79,0,0,1,233.2,393.4Z" transform="translate(-222.03 -347.85)"/>
      <path class="cls-1" d="M247.5,394.23h-6.07v4h2.62a.85.85,0,0,1,.6.24.8.8,0,0,1,.26.59.85.85,0,0,1-.86.85h-2.62V404h6.09a.84.84,0,0,1,.61.25.76.76,0,0,1,.25.58.79.79,0,0,1-.26.59.88.88,0,0,1-.62.24h-7.79V392.55h7.79a.84.84,0,0,1,.62.25.83.83,0,0,1,.26.6.78.78,0,0,1-.26.58A.84.84,0,0,1,247.5,394.23Z" transform="translate(-222.03 -347.85)"/>
      <path class="cls-1" d="M260.06,397.68v5.52l.5.81h.72l.52-.83V393.4a.83.83,0,0,1,.26-.6.86.86,0,0,1,.62-.25.82.82,0,0,1,.6.25.78.78,0,0,1,.26.58v10.07a1,1,0,0,1-.22.52l-.79,1.28a.82.82,0,0,1-.75.42h-1.61a.93.93,0,0,1-1-.67.91.91,0,0,1-.94.67h-1.51a1,1,0,0,1-.94-.46l-.74-1.2a1.12,1.12,0,0,1-.2-.56V393.4a.83.83,0,0,1,.26-.6.84.84,0,0,1,.62-.25.81.81,0,0,1,.59.25.86.86,0,0,1,.25.6v9.82l.5.79h.73l.55-.83v-5.5a.76.76,0,0,1,.25-.58.81.81,0,0,1,.6-.24.84.84,0,0,1,.61.24A.76.76,0,0,1,260.06,397.68Z" transform="translate(-222.03 -347.85)"/>
      <path class="cls-1" d="M272,392.55h4.47a2.23,2.23,0,0,1,1.55.67,2.09,2.09,0,0,1,.74,1.61.79.79,0,0,1-.26.6.82.82,0,0,1-.58.25.77.77,0,0,1-.61-.19,2.28,2.28,0,0,1-.31-.72.63.63,0,0,0-.66-.52h-4.25c-.2,0-.31.06-.31.19a.46.46,0,0,0,.13.28l6.38,7.86a1.91,1.91,0,0,1,.47,1.23,1.81,1.81,0,0,1-.56,1.3,1.7,1.7,0,0,1-1.24.56h-4.63a2.18,2.18,0,0,1-1.6-.67,2,2,0,0,1-.68-1.49.81.81,0,0,1,.9-.93.82.82,0,0,1,.59.24.8.8,0,0,1,.24.57.62.62,0,0,0,.19.45.67.67,0,0,0,.48.17h4.27c.19,0,.28-.07.28-.21a.47.47,0,0,0-.13-.26l-6.37-7.86a1.92,1.92,0,0,1-.45-1.22,1.82,1.82,0,0,1,.57-1.34A1.88,1.88,0,0,1,272,392.55Z" transform="translate(-222.03 -347.85)"/>
    </g>
    <g>
      <path class="cls-2" d="M222,370.79c1,0,1.94-.09,2.8-.2a5.17,5.17,0,0,0,.53,0v-9l-2.26,0-.69,0q-.22,0-.27-.06a.5.5,0,0,1,0-.27v-1.8q0-.23.06-.27a.51.51,0,0,1,.26,0l3.64.06h19.12l3.64-.06c.2,0,.3.1.3.31v1.8q0,.33-.3.33l-3.64-.06H235.08v9.6l.06,3.44q0,.23-.06.27a.66.66,0,0,1-.26,0h-2.21c-.16,0-.26,0-.29-.06a.44.44,0,0,1,0-.25s0-.33,0-.92,0-1.26,0-1.92q-3.9.79-7.74,1.34a3.24,3.24,0,0,0-1.07.3,1.48,1.48,0,0,1-.48.16c-.19,0-.32-.15-.41-.46A21.35,21.35,0,0,1,222,370.79Zm19-21.12,4.16-.05c.16,0,.26,0,.29.07a.55.55,0,0,1,0,.28l-.05,2.34v3l.05,2.34c0,.17,0,.27-.05.31a.55.55,0,0,1-.28,0l-4.16-.06H230.16L226,358c-.16,0-.26,0-.29-.07a.55.55,0,0,1,0-.28l.06-2.34v-3l-.06-2.34a.49.49,0,0,1,.06-.31.53.53,0,0,1,.27,0l4.16.05Zm-12.87,13.38h4.19v-1.51h-4.19Zm0,3.33h4.19v-1.5h-4.19Zm4.19,3.18v-1.35h-4.19v2C230.25,369.89,231.65,369.68,232.33,369.56Zm-3.65-17.76V353h13.81V351.8Zm13.81,4.14v-1.23H228.68v1.23Zm-7.38,16.25a16.84,16.84,0,0,0,4.8-2.14,15.82,15.82,0,0,1-2.93-4.59l-.77,0a.44.44,0,0,1-.29-.07.55.55,0,0,1,0-.28v-1.66c0-.15,0-.25.07-.27a.44.44,0,0,1,.26,0l3.27.06h5a1.57,1.57,0,0,0,.53-.11,1.39,1.39,0,0,1,.45-.11c.2,0,.55.21,1.05.65s.8.85.8,1.07a.61.61,0,0,1-.3.51,3.3,3.3,0,0,0-.8,1.21,15.33,15.33,0,0,1-2.42,3.47,16.82,16.82,0,0,0,5.28,1.94,10.14,10.14,0,0,0-1.05,1.83c-.17.45-.35.68-.53.68a3.28,3.28,0,0,1-.6-.13,17.57,17.57,0,0,1-5.09-2.46,21,21,0,0,1-4.49,2.52,3.37,3.37,0,0,1-.6.19q-.24,0-.54-.66A5.84,5.84,0,0,0,235.11,372.19Zm6.76-3.78a11.11,11.11,0,0,0,2-3h-4.23A10.35,10.35,0,0,0,241.87,368.41Z" transform="translate(-222.03 -347.85)"/>
      <path class="cls-2" d="M257.72,360.62l-3.67.05c-.19,0-.29-.1-.29-.31v-2.07a.26.26,0,0,1,.29-.3l3.67.05h3.84a19.19,19.19,0,0,0,1.13-2.73,4.24,4.24,0,0,0,.2-1.26c.41.08.89.18,1.43.31l1.16.3c.25.07.37.21.37.4a.57.57,0,0,1-.24.44,1.75,1.75,0,0,0-.45.65c-.37.81-.68,1.43-.93,1.89l3.23-.05c.16,0,.25,0,.28.05a.47.47,0,0,1,0,.25v2.07q0,.22-.06.27a.49.49,0,0,1-.26,0l-3.66-.05h-1.37a8.55,8.55,0,0,0-.07,1.58v.51h1l3.57,0a.47.47,0,0,1,.28,0,.51.51,0,0,1,0,.26v2c0,.15,0,.25-.06.28a.62.62,0,0,1-.26,0l-3.57-.06h-.21a14.18,14.18,0,0,0,3.81,3,9.31,9.31,0,0,0-1.05,1.83c-.12.31-.24.46-.35.46s-.35-.13-.62-.4a14.51,14.51,0,0,1-2.66-3c0,1.59.05,3.25.1,5,0,1.31.06,2.06.06,2.27a.41.41,0,0,1-.07.28.79.79,0,0,1-.3,0h-2.35c-.16,0-.25,0-.28-.07s0-.11,0-.25,0-1,.06-2.55c0-1.39,0-2.75.06-4.07a24.77,24.77,0,0,1-3.87,4.63c-.31.27-.52.41-.63.41s-.32-.2-.48-.58a8.35,8.35,0,0,0-1.16-1.92,17.86,17.86,0,0,0,5.26-5.09h-.74l-3.6.06c-.16,0-.25,0-.28-.06a.49.49,0,0,1,0-.26v-2c0-.15,0-.24.05-.27a.53.53,0,0,1,.27,0l3.6,0h1.56v-.51c0-.77,0-1.29,0-1.58Zm5.74-6.89h-5.23l-3.52.06c-.16,0-.25,0-.28-.06a.44.44,0,0,1,0-.25v-2c0-.15,0-.23.06-.26s.12,0,.26,0l3.52.05h1.16v-.77a7.57,7.57,0,0,0-.19-1.9c1.32,0,2.35.09,3.1.15.32,0,.48.11.48.26a1.31,1.31,0,0,1-.18.48,2.58,2.58,0,0,0-.14,1v.74h1l3.49-.05a.55.55,0,0,1,.31.05.47.47,0,0,1,0,.25v2q0,.22-.06.27a.73.73,0,0,1-.29,0Zm-7.11,1.33a.61.61,0,0,1-.1-.26c0-.11.12-.18.36-.23l1.53-.43a1,1,0,0,1,.25,0c.1,0,.19.08.27.23a11.58,11.58,0,0,1,1.11,2.59.63.63,0,0,1,0,.2c0,.11-.11.2-.33.26l-1.7.42a1,1,0,0,1-.31.07c-.14,0-.23-.09-.29-.29A14.75,14.75,0,0,0,256.35,355.06Zm8.74,18.12a13.68,13.68,0,0,0,3.07-5.81,38.65,38.65,0,0,0,.59-8.25V356c0-1.91-.05-3.55-.17-4.9a15.13,15.13,0,0,1,2.73.69,20.92,20.92,0,0,0,5.17-2,8.6,8.6,0,0,0,1.57-1.05,11.53,11.53,0,0,1,1.95,2,1,1,0,0,1,.2.55c0,.19-.15.31-.45.35a3.75,3.75,0,0,0-1.17.33,32.18,32.18,0,0,1-6.93,2.35v3.5h5.09l4.06-.06q.22,0,.27.06a.44.44,0,0,1,.05.25v2.1q0,.23-.06.27a.66.66,0,0,1-.26,0l-.4,0-2.61,0v10.09l0,4a.52.52,0,0,1,0,.29.38.38,0,0,1-.24.05H275.1c-.16,0-.25,0-.28-.06a.55.55,0,0,1,0-.28l.05-4V360.46h-3.18a37.11,37.11,0,0,1-.77,8.29,16.41,16.41,0,0,1-2.58,5.44c-.28.36-.49.54-.62.54a1.68,1.68,0,0,1-.66-.4A6.61,6.61,0,0,0,265.09,373.18Z" transform="translate(-222.03 -347.85)"/>
      <path class="cls-2" d="M287.54,356.32a23.45,23.45,0,0,1,4.45,3.09c.12.12.18.19.18.23a1.1,1.1,0,0,1-.19.35l-1.34,1.83c-.08.13-.16.2-.23.2s-.15-.06-.28-.17a23.64,23.64,0,0,0-4.41-3.29c-.15-.09-.23-.16-.23-.21a.85.85,0,0,1,.2-.34l1.26-1.55q.19-.24.33-.24A.72.72,0,0,1,287.54,356.32Zm-1.82,16.39a13.8,13.8,0,0,0,1.62-2.27,43.14,43.14,0,0,0,3.07-6.59,15.23,15.23,0,0,0,1.64,1.47c.45.32.68.57.68.74a1.66,1.66,0,0,1-.2.66c-1.2,2.8-2.18,4.9-2.92,6.31a7.57,7.57,0,0,0-.51,1.07c-.07.26-.2.38-.39.38a1.15,1.15,0,0,1-.57-.17A15,15,0,0,1,285.72,372.71ZM289,349.07a28.9,28.9,0,0,1,4.2,3.18c.12.08.18.16.18.22a.79.79,0,0,1-.19.35l-1.37,1.78c-.11.17-.21.25-.29.25s-.12-.05-.24-.17A27,27,0,0,0,287,351.3c-.13-.08-.2-.15-.2-.23a1,1,0,0,1,.2-.32l1.36-1.54c.12-.16.23-.23.32-.23A.74.74,0,0,1,289,349.07Zm7.71.72a20.69,20.69,0,0,1,2.53,4.46.64.64,0,0,1,.07.24c0,.08-.12.18-.36.28l-2,.89a1.18,1.18,0,0,1-.36.12q-.11,0-.21-.24a17.1,17.1,0,0,0-2.42-4.49.42.42,0,0,1-.12-.23c0-.08.12-.18.35-.29l1.87-.83a1.24,1.24,0,0,1,.38-.12C296.47,349.58,296.56,349.65,296.66,349.79Zm7,21.95c1.11.06,1.93.08,2.48.08a1.31,1.31,0,0,0,.83-.18.8.8,0,0,0,.15-.56V368.7h-9.14v2.1l.06,3.72q0,.23-.06.27a.51.51,0,0,1-.26,0h-2.46a.47.47,0,0,1-.28-.05.49.49,0,0,1,0-.26l.06-3.82v-9.79l-.06-3.86c0-.16,0-.25.06-.28a.53.53,0,0,1,.27,0l3.87,0h1.79v-4.21a30,30,0,0,0-.2-4c1.27,0,2.34.1,3.21.19.3,0,.45.13.45.29a1.75,1.75,0,0,1-.17.63,9.84,9.84,0,0,0-.16,2.44v4.67h2l3.87,0a.52.52,0,0,1,.29,0,.53.53,0,0,1,0,.27l-.06,4.11v6.59l0,3.88a5.55,5.55,0,0,1-.13,1.44,1.84,1.84,0,0,1-.61.91c-.55.44-1.85.67-3.88.68a1.85,1.85,0,0,1-.89-.12,1.53,1.53,0,0,1-.26-.73A6.48,6.48,0,0,0,303.62,371.74Zm3.46-12.36h-9.14v2.27h9.14Zm-9.14,6.95h9.14V364h-9.14Zm7.62-11.51a22.92,22.92,0,0,0,2.38-4.15,7.09,7.09,0,0,0,.4-1.26,26.2,26.2,0,0,1,2.73,1.2c.26.14.39.28.39.41s-.08.21-.23.33a2.14,2.14,0,0,0-.51.61c-.59,1.14-1.25,2.28-2,3.41q-.42.6-.6.6a2.18,2.18,0,0,1-.73-.31A10.17,10.17,0,0,0,305.56,354.82Z" transform="translate(-222.03 -347.85)"/>
      <path class="cls-2" d="M320.08,367c.07-.19.14-.28.22-.28a1.09,1.09,0,0,1,.34.1l1.87.7c.24.08.35.18.35.29a.68.68,0,0,1,0,.21,17.14,17.14,0,0,1-3,5.74.38.38,0,0,1-.26.17,1,1,0,0,1-.37-.17l-1.73-1.15c-.19-.14-.29-.25-.29-.33a.38.38,0,0,1,.12-.21A14,14,0,0,0,320.08,367Zm11.19-1.8A19.15,19.15,0,0,1,334.1,368a.58.58,0,0,1,.15.25q0,.11-.24.24l-1.61,1.13a1.44,1.44,0,0,1-.35.21s-.12-.07-.25-.22a16.32,16.32,0,0,0-2.61-2.9q-.15-.17-.15-.24c0-.06.1-.16.29-.3l1.31-.9.22-.11h-5.28l-4.1.06c-.16,0-.26,0-.29-.06a.53.53,0,0,1,0-.27l.05-3.23v-7l-.05-3.21a.5.5,0,0,1,.05-.28.7.7,0,0,1,.28,0l4.1.06h1.73c.13-.27.34-.77.63-1.49a6.32,6.32,0,0,0,.35-1.32,27.15,27.15,0,0,1,3.24.43c.3.06.45.19.45.38s-.09.22-.26.39a1.82,1.82,0,0,0-.48.66l-.51,1h4.65l4.12-.06q.22,0,.27.06a.46.46,0,0,1,.05.26l-.06,3.21v7l.06,3.23a.52.52,0,0,1-.05.28.5.5,0,0,1-.27,0l-4.12-.06h-4.2Zm3.78,3.94a9.92,9.92,0,0,0,2.08.78,2,2,0,0,1,.59.23.33.33,0,0,1,.13.31,3.81,3.81,0,0,1,0,.43,3.72,3.72,0,0,1-1.69,2.9q-1.29.6-5.71.6a20.07,20.07,0,0,1-4.86-.38,1.93,1.93,0,0,1-1.22-2.08v-3.33a14.18,14.18,0,0,0-.15-2.36c1.28,0,2.27.11,3,.21.3.05.45.15.45.31a1.21,1.21,0,0,1-.14.46,2.22,2.22,0,0,0-.18,1v2.46q0,.81.54.93a13.15,13.15,0,0,0,2.67.16,10,10,0,0,0,3.81-.43C334.74,371.18,335,370.43,335.05,369.15Zm1.61-15.73H324.3v1.7h12.36ZM324.3,359h12.36v-1.73H324.3Zm12.36,3.91v-1.81H324.3v1.81Zm3.67,3.77a28.38,28.38,0,0,1,3.49,5,.69.69,0,0,1,.08.25c0,.07-.11.18-.33.32l-1.91,1a1.37,1.37,0,0,1-.37.14c-.06,0-.13-.07-.22-.2a22.19,22.19,0,0,0-3.16-5.13c-.08-.1-.13-.17-.13-.23s.1-.17.29-.29l1.66-.88a.8.8,0,0,1,.32-.12A.41.41,0,0,1,340.33,366.63Z" transform="translate(-222.03 -347.85)"/>
    </g>
    <rect class="cls-2" x="179.18" y="83.13" width="63.92" height="60.37" rx="5.05"/>
    <rect class="cls-2" x="102.05" y="83.13" width="63.92" height="60.37" rx="5.05"/>
    <g>
      <rect class="cls-3" x="215.3" y="1" width="27" height="25.5" rx="5.05"/>
      <line class="cls-4" x1="223.11" y1="13.59" x2="234.87" y2="13.59"/>
      <line class="cls-4" x1="228.83" y1="7.87" x2="228.83" y2="19.63"/>
    </g>
    <g>
      <path class="cls-5" d="M358.83,480.21a19.23,19.23,0,0,1,0-2c.14-1.38-.27-2-1.82-2s-1.77.85-1.74,2.11a25.25,25.25,0,0,1-.17,3.79,4,4,0,0,1-5.43,3.34,2.42,2.42,0,0,1-2-2.57c.05-1.57,0-3.14,0-4.7.05-1.28-.38-1.84-1.75-2a14.35,14.35,0,0,1-6.58-1.92c-4-2.64-4-6.71-3.58-10.8a17.58,17.58,0,0,1,2.27-6.95,3.28,3.28,0,0,0-.15-4.05,25,25,0,0,1-4.2-9.71c-.29-1.46,0-2.56,1.67-2.77.81-.09,1.21-.38,1.22-1.23s0-1.85,1.16-1.74c1,.1,1.28,1.09,1.27,1.88a24.9,24.9,0,0,0,1,6.6,6.77,6.77,0,0,0,.45,1.49c.41.78.91,1.76,1.84,1.77s.95-1.19,1.24-1.89c1.13-2.68,2.11-5.41,4.61-7.23a14.27,14.27,0,0,1,21.75,6.08,71.1,71.1,0,0,0,5.46,10,19.45,19.45,0,0,1,2.68,12.87c-.5,4.22-2.8,6.24-7.56,7.22-4.34.9-4.34.9-4.35,5.25,0,4-1.59,5.23-5.61,4.19a2,2,0,0,1-1.69-2.05c0-1,0-1.94,0-2.91Zm-6.34-36.82a4.11,4.11,0,0,0-3.74,6.1c1.45,2.77,4.24,3.24,6.93,1.11.83-.66,1.4-1.44,2.54-.21a4.18,4.18,0,0,0,6.47,0,4.71,4.71,0,0,0-.35-6.08c-1.76-1.71-4.44-1.56-6.26.59-.88,1-1.35.77-2.08,0A4.7,4.7,0,0,0,352.49,443.39Z" transform="translate(-222.03 -347.85)"/>
      <path class="cls-5" d="M361.38,445.17c1.45.18,2.44.92,2.44,2.39a2.15,2.15,0,0,1-2.37,2.35,2.11,2.11,0,0,1-2.27-2.21A2.28,2.28,0,0,1,361.38,445.17Z" transform="translate(-222.03 -347.85)"/>
      <path class="cls-5" d="M355.05,447.42c-.15,1.64-1,2.49-2.44,2.48a2.12,2.12,0,0,1-2.28-2.2,2.18,2.18,0,0,1,2.28-2.45A2.3,2.3,0,0,1,355.05,447.42Z" transform="translate(-222.03 -347.85)"/>
    </g>
    <g>
      <path class="cls-5" d="M432.77,474.72c0,2.46,0,4.92,0,7.38a2.77,2.77,0,0,1-2.29,3c-.89.23-1.9.53-2.6-.46s.21-1.43.63-2.08c1-1.55.29-3.28.49-4.91.26-2.21,0-4.14-2.24-5.37a4.92,4.92,0,0,1-2-2.53c-1.67-4-4-7.79-5.84-11.73-2.79-5.81-1.87-12.35,2.4-16.68,3.78-3.83,8.63-4.85,13.78-4.2,2.59.32,5.25.62,7.57,2.16,6.73,4.47,8.3,13.09,3.85,20.78a48.07,48.07,0,0,0-4.21,8.43,8.48,8.48,0,0,1-3.93,4.83,2,2,0,0,0-1.19,2.06c.07,1.82,0,3.65,0,5.48a3.57,3.57,0,0,0,.61,2.06c1,1.44.58,2.18-1.12,2.36a3,3,0,0,1-3.24-3c0-2.53,0-5.06,0-7.59ZM445.56,449a5.86,5.86,0,0,0-5.85-6c-3.5.19-6,2-6,6a5.93,5.93,0,1,0,11.85,0Zm-24.28,0a5.87,5.87,0,1,0,11.73-.14,5.87,5.87,0,1,0-11.73.14Z" transform="translate(-222.03 -347.85)"/>
      <path class="cls-5" d="M442.9,449a3.44,3.44,0,0,1-3.42,3.31,3.38,3.38,0,0,1-3.19-3.26,3.25,3.25,0,0,1,3.27-3.37A3.3,3.3,0,0,1,442.9,449Z" transform="translate(-222.03 -347.85)"/>
      <path class="cls-5" d="M427.08,452.34a3.23,3.23,0,0,1-3.21-3.42,3.13,3.13,0,0,1,3.37-3.2,3.17,3.17,0,0,1,3.12,3.25A3.28,3.28,0,0,1,427.08,452.34Z" transform="translate(-222.03 -347.85)"/>
    </g>
    <path class="cls-2" d="M308.09,464.35a32,32,0,0,1-7.61-.63,40.9,40.9,0,0,1-7.41-2.11,45.32,45.32,0,0,1-13.35-7.95,45.8,45.8,0,0,1-9.94-12.07,49.88,49.88,0,0,1-5.37-14.5l2.88,0c-.66,1.83-1.37,3.66-2.08,5.48-.35.91-.75,1.81-1.12,2.72s-.79,1.8-1.2,2.7c.07-1,.16-2,.28-2.94s.21-1.95.36-2.92c.27-1.94.54-3.88.87-5.8a1.45,1.45,0,0,1,2.78-.29l.1.25a74.61,74.61,0,0,0,6.54,12.89A57,57,0,0,0,283,450a61.22,61.22,0,0,0,11.6,8.42A71.51,71.51,0,0,0,308.09,464.35Z" transform="translate(-222.03 -347.85)"/>
  </g>
</svg>
