<svg id="圖層_1" data-name="圖層 1" xmlns="http://www.w3.org/2000/svg" viewBox="0 0 195.34 43.15">
  <defs>
    <style>
      .cls-1 {
        fill: #fff;
        stroke: #fff;
        stroke-miterlimit: 10;
        stroke-width: 2.74px;
      }
    </style>
  </defs>
  <g>
    <path class="cls-1" d="M311.6,146.76v37.79h-8.19L287,153.17V182a2.27,2.27,0,0,1-.89,1.81,3.52,3.52,0,0,1-4.32,0,2.27,2.27,0,0,1-.89-1.81V144.14h8.06l16.51,31.32v-28.7a2.33,2.33,0,0,1,.93-1.84,3.47,3.47,0,0,1,4.36,0A2.38,2.38,0,0,1,311.6,146.76Z" transform="translate(-279.47 -142.77)"/>
    <path class="cls-1" d="M362.45,149.31h-21.6v12.44h9.31a3.21,3.21,0,0,1,2.14.76,2.25,2.25,0,0,1,.91,1.79,2.35,2.35,0,0,1-.89,1.86,3.24,3.24,0,0,1-2.16.76h-9.31v12.52h21.67a3.25,3.25,0,0,1,2.14.75,2.24,2.24,0,0,1,0,3.62,3.41,3.41,0,0,1-2.19.74h-27.7V144.14h27.7a3.28,3.28,0,0,1,2.19.78,2.33,2.33,0,0,1,.93,1.84,2.24,2.24,0,0,1-.93,1.79A3.32,3.32,0,0,1,362.45,149.31Z" transform="translate(-279.47 -142.77)"/>
    <path class="cls-1" d="M407.11,160v17l1.78,2.49h2.55l1.85-2.55V146.76a2.33,2.33,0,0,1,.93-1.84,3.29,3.29,0,0,1,2.2-.78,3.26,3.26,0,0,1,2.14.76,2.28,2.28,0,0,1,.91,1.8v31a3.14,3.14,0,0,1-.76,1.61l-2.84,3.92a3,3,0,0,1-2.65,1.31h-5.75c-1.81,0-3-.69-3.49-2.07a3.25,3.25,0,0,1-3.34,2.07h-5.38a3.79,3.79,0,0,1-3.34-1.43l-2.62-3.68a3.09,3.09,0,0,1-.73-1.73v-31a2.33,2.33,0,0,1,.93-1.84,3.31,3.31,0,0,1,2.2-.78,3.08,3.08,0,0,1,2.09.78,2.38,2.38,0,0,1,.89,1.84V177l1.78,2.43h2.62l1.92-2.55V160a2.3,2.3,0,0,1,.89-1.81,3.32,3.32,0,0,1,2.17-.74,3.27,3.27,0,0,1,2.16.74A2.3,2.3,0,0,1,407.11,160Z" transform="translate(-279.47 -142.77)"/>
    <path class="cls-1" d="M449.42,144.14h15.91a8.75,8.75,0,0,1,5.51,2.06,6.14,6.14,0,0,1,2.6,5,2.3,2.3,0,0,1-.93,1.85,3.12,3.12,0,0,1-2.05.76,3,3,0,0,1-2.14-.59,5.86,5.86,0,0,1-1.11-2.21,2.24,2.24,0,0,0-2.35-1.61H449.74c-.73,0-1.09.2-1.09.59a1.19,1.19,0,0,0,.45.86L471.8,175a5.42,5.42,0,0,1,1.64,3.76,5.23,5.23,0,0,1-2,4,6.56,6.56,0,0,1-4.42,1.73H450.58a8.43,8.43,0,0,1-5.69-2.08,6,6,0,0,1-2.42-4.58c0-1.9,1.07-2.86,3.2-2.86a3.13,3.13,0,0,1,2.11.75,2.25,2.25,0,0,1,.87,1.75,1.74,1.74,0,0,0,.67,1.37,2.61,2.61,0,0,0,1.69.54h15.2c.65,0,1-.21,1-.65,0-.2-.13-.47-.45-.79l-22.66-24.22a5.44,5.44,0,0,1-1.61-3.77,5.29,5.29,0,0,1,2-4.12A7.33,7.33,0,0,1,449.42,144.14Z" transform="translate(-279.47 -142.77)"/>
  </g>
</svg>
