<svg id="圖層_1" data-name="圖層 1" xmlns="http://www.w3.org/2000/svg" viewBox="0 0 272.38 319.57">
  <defs>
    <style>
      .cls-1 {
        fill: #50bcae;
      }

      .cls-2 {
        fill: #c7c6c6;
      }

      .cls-3 {
        fill: #ebd367;
      }

      .cls-4 {
        fill: #1687b5;
      }

      .cls-5 {
        fill: none;
      }

      .cls-6 {
        fill: #51584a;
        stroke: #1687b5;
        stroke-linecap: round;
        stroke-linejoin: round;
        stroke-width: 2.31px;
      }

      .cls-7 {
        fill: #fff;
      }
    </style>
  </defs>
  <path class="cls-1" d="M296.92,201.86c-27.48,10.53-56.67,4.58-81.69-9.46-7.89-4.42-19.86-13.48-13.83-23.73,2-3.35,5.12-7.34,9.3-7.78,7-.75,11.72,10.51,16,14.76,19.82,19.77,49.44,21.07,75.79,21.27" transform="translate(-175.41 -19.61)"/>
  <path class="cls-2" d="M283.29,36.91s-9.13,1.2-10.81,14.42c0,0,3.85,4.09,10.81-11.29Z" transform="translate(-175.41 -19.61)"/>
  <path class="cls-1" d="M286.59,180.65l-21.32-20.17s-38.62-36.31,9.79-81.27c18.34-17,52.25-15.5,72.63-3.46C375.63,92.25,378,133.4,367,160.64a17.35,17.35,0,0,1-1.27,2.27c-.24.4,19.72,16.66,21.67,18.85C404,200.39,404.91,227,394,248.65c-4.12,8.18-12.62,13-20.37,17.31L250.86,334.55s-18.45,13.83-25.37-6.34c0,0-7.49-33.43,9.8-39.77,0,0,8.65-1.15,6.34,18.44l76.66-42.07-12.68-6.34L195.52,301.7s-11,4.61-15-5.19c0,0-11.52-17.29,0-34.59,0,0,5.77-8.64,12.11,7.5,0,0-3.46,4,18.44-5.77l77.24-28.24s-15-20.17,0-49.57Z" transform="translate(-175.41 -19.61)"/>
  <circle class="cls-3" cx="154.7" cy="111.19" r="24.21"/>
  <circle class="cls-4" cx="154.7" cy="111.19" r="17.29"/>
  <ellipse class="cls-3" cx="259.03" cy="123.23" rx="21.38" ry="9.17" transform="translate(-69.33 346.29) rotate(-83.22)"/>
  <circle class="cls-5" cx="154.7" cy="111.19" r="24.21"/>
  <ellipse class="cls-4" cx="259.24" cy="123.02" rx="14.48" ry="5.98" transform="translate(-68.93 346.31) rotate(-83.22)"/>
  <line class="cls-6" x1="99.65" y1="114.93" x2="122.71" y2="117.24"/>
  <path class="cls-4" d="M303.6,185s-11.53-12.11-11-2.31c0,0-5.76,3.46,0,5.76,0,0-2.88,5.19,3.46,4l7.5-2.31c6.81-2.09,13,7,20.17,5.19,1-.24,2.66-1.7,2.76-2.71.15-1.64-1.52-2.14-2.76-2.48,1,.26,2.51-3.19,2.5-4,0-2-1.95-3-3.65-3.48.5.15.84-3.77.64-4.2-1.44-3.05-7-.94-9,.41-1.64,1.1-2.89,2.89-4.5,4.15C307.92,184.48,305.86,184.69,303.6,185Z" transform="translate(-175.41 -19.61)"/>
  <path class="cls-1" d="M360.9,191.12c29.29-2.94,55.89,10.47,76.34,30.59,6.45,6.34,15.62,18.23,7.11,26.53-2.78,2.71-6.87,5.74-11,5.07-7-1.13-8.55-13.23-11.55-18.45-13.93-24.28-42.17-33.32-67.54-40.43" transform="translate(-175.41 -19.61)"/>
  <ellipse class="cls-7" cx="131.42" cy="56.47" rx="14.35" ry="4.85"/>
  <rect class="cls-7" x="128.79" y="30.02" width="3.93" height="22.73" rx="1.97"/>
  <rect class="cls-7" x="126.61" y="25.65" width="7.87" height="10.32" rx="3.93"/>
  <path class="cls-2" d="M315.09,42.77c.65.25,2.2-.38,2.8-.59,3.07-1.08,4.67-4.32,6.41-6.84l4-5.82c1.12-1.62,3.53-1.08,5.08-.45a25.34,25.34,0,0,1,6.16,4c1.32,1.17.17,4.6-.15,6.08-.27,1.26-3,11.71-3,11.71Z" transform="translate(-175.41 -19.61)"/>
  <path class="cls-2" d="M281.18,36.19s-8.6-6.49-4-10.33c0,0,9.85-6,5.77,10.33Z" transform="translate(-175.41 -19.61)"/>
  <path class="cls-7" d="M282.84,35.6s7.52-7.88,51.77,14.52l1.8.71s-13.08,2.69-46.76-8.24C289.65,42.59,280,38.47,282.84,35.6Z" transform="translate(-175.41 -19.61)"/>
  <path class="cls-2" d="M285.32,36.91s.24-17.3,8.17-17.3C293.49,19.61,304.07,23.69,285.32,36.91Z" transform="translate(-175.41 -19.61)"/>
  <path class="cls-2" d="M284.28,38s9.13,1.2,10.82,14.42c0,0-3.85,4.08-10.82-11.3Z" transform="translate(-175.41 -19.61)"/>
</svg>
