<svg id="圖層_1" data-name="圖層 1" xmlns="http://www.w3.org/2000/svg" viewBox="0 0 55.71 232.16">
  <defs>
    <style>
      .cls-1 {
        fill: #dec446;
      }

      .cls-2 {
        fill: #fff;
      }

      .cls-3 {
        fill: #202b3f;
      }
    </style>
  </defs>
  <g>
    <g>
      <path class="cls-1" d="M294,235.12a23.29,23.29,0,0,1-.55-5.83c.09-3.19-1.52-6.89-.1-9.94.44-.95-1.55-.94-2.5-1s-2.22.17-1.94,1.7c1.27,6.94-1.9,13.3-2.56,20-.87,8.08-.45,16.17-.27,24.25-.41,4.17-.9,8.33-1.2,12.51-.62,8.6,0,17.44-5.89,24.86-1.66,2.1-2.4,6-5.76,4.7s-1.05-4.59-.31-6.86c1.9-5.82,3.74-11.53,3.38-17.84-1.43-24.75.27-49.55-.84-74.31-.18-4,1-5.16,4.95-5,7.15.28,14.32.2,21.48,0,3.28-.09,4.16,1.15,4.06,4.29-.33,11.16-1.29,22.39-.41,33.46,1.69,21-4.61,42.63,4.29,63.16.6,1.38-.33,2.3-1.36,3.07a2.15,2.15,0,0,1-3.23-.59c-2.11-3.71-5-7-6.71-11-1.89-4.29-1.53-9-1.66-13.54-.2-7.05-1.81-14-1.6-21.08s2-13.49,0-20.47C294.75,238.08,294.32,236.6,294,235.12Z" transform="translate(-262.92 -74.7)"/>
      <path class="cls-1" d="M318.48,212.57c.19,3.31.45,6.65-.9,9.79-.92,2.13-2.47,3.15-4.32,1-4.82-5.61-4.46-12.62-4.56-19.3,0-2.65,3.05-1.36,4.76-1.53,2.13-.22,4.37-.29,4.6,2.74C318.25,207.7,318.34,210.14,318.48,212.57Z" transform="translate(-262.92 -74.7)"/>
      <path class="cls-1" d="M263.25,212.45c0-1.55-.05-3.11,0-4.67.19-4.87,3.27-6.85,7.83-5.23,1.55.55,1.58,1.59,1.56,2.84-.1,5.88,0,11.79-3.79,16.85-.69.93-.87,2.4-2.49,2.2a3.34,3.34,0,0,1-2.83-2.7A23.06,23.06,0,0,1,263.25,212.45Z" transform="translate(-262.92 -74.7)"/>
      <path class="cls-1" d="M305.29,142.8c-3,4.87-26.33,4.83-29.2-.33-1.24,4.79-5,3.59-8.09,3.52-2.28-.05-2.14-1.93-2-3.51,1.07-10.21,2.78-19.8,13.3-25.42,7.58-4.06,7.28-4.92,1.86-12.25-5.64-7.62-6.28-18.87-.34-25.09,3.2-3.35,6.88-5.72,11.4-4.83A14.56,14.56,0,0,1,304,85.57c2.06,7.54.3,14.43-4.8,20.49-4,4.77-3.84,7.67,1.63,10.23,10.88,5.1,13.41,14.63,14.57,25.1.26,2.35.69,5-3,5.49C307.82,147.46,306.52,146.84,305.29,142.8Z" transform="translate(-262.92 -74.7)"/>
    </g>
    <path class="cls-2" d="M301.87,191.83a5.51,5.51,0,0,0-4.93,1.11,3.43,3.43,0,0,1-4.71.14c-1.46-1.05-3.52-1.85-4.92-.79-4,3.05-7.2.16-10.35-1.34-2.11-1-3.7-2.3-6.22-1.17-2.71,1.23-3.32-.55-2.33-2.52,2.6-5.15,2.69-10.77,3.65-16.25,1.7-9.7,9.66-16,19.8-15.91s17.83,6.33,19.51,16.21c.9,5.31.93,10.78,3.62,15.71.89,1.63,1,4-2,2.86a5.61,5.61,0,0,0-6.62,1.33C305.07,192.42,303.44,192.11,301.87,191.83ZM289.72,175a3,3,0,0,0-2.81-3,2.78,2.78,0,0,0-3.17,2.7,2.75,2.75,0,0,0,2.72,3.16C288.27,178.09,289.26,176.87,289.72,175Zm10.24.18a2.93,2.93,0,0,0-2.82-3,2.74,2.74,0,0,0-3.12,2.73,2.79,2.79,0,0,0,2.77,3.13C298.59,178.15,299.62,177.05,300,175.2Z" transform="translate(-262.92 -74.7)"/>
    <path class="cls-3" d="M289.72,175c-.46,1.85-1.45,3.07-3.26,2.88a2.75,2.75,0,0,1-2.72-3.16,2.78,2.78,0,0,1,3.17-2.7A3,3,0,0,1,289.72,175Z" transform="translate(-262.92 -74.7)"/>
    <path class="cls-3" d="M300,175.2c-.34,1.85-1.37,3-3.17,2.82a2.79,2.79,0,0,1-2.77-3.13,2.74,2.74,0,0,1,3.12-2.73A2.93,2.93,0,0,1,300,175.2Z" transform="translate(-262.92 -74.7)"/>
  </g>
</svg>
