<svg id="圖層_1" data-name="圖層 1" xmlns="http://www.w3.org/2000/svg" viewBox="0 0 55.71 232.16">
  <defs>
    <style>
      .cls-1 {
        fill: #2a4893;
      }

      .cls-2 {
        fill: #fff;
      }

      .cls-3 {
        fill: #202b3f;
      }
    </style>
  </defs>
  <g>
    <path class="cls-1" d="M173.37,254.81a23.29,23.29,0,0,1-.55-5.83c.09-3.19-1.51-6.89-.1-9.94.44-.95-1.55-.94-2.5-1s-2.22.17-1.94,1.7c1.27,6.94-1.89,13.31-2.56,20-.87,8.08-.45,16.17-.27,24.25-.41,4.17-.9,8.33-1.2,12.51-.62,8.6,0,17.44-5.89,24.86-1.66,2.1-2.39,6-5.76,4.7s-1-4.59-.31-6.86c1.9-5.82,3.74-11.53,3.38-17.84-1.43-24.75.27-49.55-.84-74.31-.18-4,1-5.16,5-5,7.14.28,14.32.2,21.47,0,3.29-.09,4.16,1.15,4.06,4.29-.33,11.16-1.29,22.39-.4,33.46,1.68,21-4.61,42.63,4.28,63.16.6,1.38-.33,2.3-1.36,3.07a2.14,2.14,0,0,1-3.22-.59c-2.11-3.71-5-7.05-6.72-11-1.89-4.29-1.53-9-1.66-13.54-.2-7.05-1.8-14-1.6-21.08s2-13.49,0-20.47C174.11,257.77,173.69,256.29,173.37,254.81Z" transform="translate(-142.28 -94.39)"/>
    <path class="cls-1" d="M197.84,232.26c.19,3.31.45,6.65-.9,9.79-.92,2.13-2.47,3.15-4.32,1-4.82-5.61-4.46-12.62-4.55-19.3,0-2.65,3-1.36,4.75-1.53,2.14-.21,4.38-.29,4.61,2.75C197.61,227.39,197.71,229.83,197.84,232.26Z" transform="translate(-142.28 -94.39)"/>
    <path class="cls-1" d="M142.62,232.14c0-1.55-.05-3.11,0-4.67.19-4.87,3.26-6.85,7.82-5.23,1.55.55,1.58,1.59,1.56,2.84-.1,5.88,0,11.79-3.79,16.85-.69.93-.87,2.4-2.49,2.2a3.34,3.34,0,0,1-2.83-2.7A23.06,23.06,0,0,1,142.62,232.14Z" transform="translate(-142.28 -94.39)"/>
    <path class="cls-1" d="M184.65,162.49c-3,4.87-26.33,4.83-29.2-.33-1.24,4.79-4.95,3.59-8.09,3.52-2.27-.05-2.14-1.93-2-3.51,1.06-10.21,2.77-19.8,13.29-25.42,7.58-4.05,7.29-4.91,1.86-12.25-5.64-7.62-6.27-18.87-.34-25.09,3.2-3.35,6.88-5.72,11.4-4.83a14.57,14.57,0,0,1,11.78,10.68c2.06,7.54.29,14.43-4.8,20.49-4,4.77-3.84,7.67,1.63,10.23,10.88,5.1,13.4,14.63,14.56,25.1.26,2.35.69,5-3,5.49C187.19,167.15,185.89,166.53,184.65,162.49Z" transform="translate(-142.28 -94.39)"/>
    <path class="cls-2" d="M181.23,211.52a5.48,5.48,0,0,0-4.92,1.11,3.44,3.44,0,0,1-4.72.14c-1.46-1.05-3.51-1.85-4.92-.79-4,3.05-7.2.17-10.35-1.34-2.1-1-3.7-2.3-6.21-1.16-2.72,1.22-3.33-.56-2.33-2.53,2.59-5.15,2.68-10.77,3.64-16.24,1.7-9.71,9.67-16,19.81-15.92s17.83,6.33,19.5,16.21c.9,5.31.93,10.78,3.62,15.72.89,1.62,1,4-2,2.85a5.59,5.59,0,0,0-6.61,1.33C184.43,212.11,182.8,211.81,181.23,211.52Zm-12.14-16.81a3,3,0,0,0-2.82-3,2.93,2.93,0,1,0-.45,5.85C167.63,197.78,168.62,196.56,169.09,194.71Zm10.23.18a2.93,2.93,0,0,0-2.82-3,2.74,2.74,0,0,0-3.12,2.73,2.8,2.8,0,0,0,2.77,3.13C178,197.84,179,196.74,179.32,194.89Z" transform="translate(-142.28 -94.39)"/>
    <path class="cls-3" d="M169.09,194.71c-.47,1.85-1.46,3.07-3.27,2.88a2.93,2.93,0,1,1,.45-5.85A3,3,0,0,1,169.09,194.71Z" transform="translate(-142.28 -94.39)"/>
    <path class="cls-3" d="M179.32,194.89c-.33,1.85-1.37,3-3.17,2.82a2.8,2.8,0,0,1-2.77-3.13,2.74,2.74,0,0,1,3.12-2.73A2.93,2.93,0,0,1,179.32,194.89Z" transform="translate(-142.28 -94.39)"/>
  </g>
</svg>
