<svg id="圖層_1" data-name="圖層 1" xmlns="http://www.w3.org/2000/svg" viewBox="0 0 55.71 232.16">
  <defs>
    <style>
      .cls-1 {
        fill: #e49392;
      }

      .cls-2 {
        fill: #fff;
      }

      .cls-3 {
        fill: #202b3f;
      }
    </style>
  </defs>
  <g>
    <g>
      <path class="cls-1" d="M287.36,206.61a23.71,23.71,0,0,1-.56-5.83c.1-3.18-1.51-6.88-.09-9.94.44-1-1.55-.94-2.5-1s-2.22.17-1.94,1.7c1.26,6.94-1.9,13.31-2.56,20-.87,8.08-.46,16.17-.27,24.25-.41,4.17-.9,8.33-1.2,12.51-.62,8.61,0,17.45-5.89,24.87-1.66,2.09-2.4,6-5.76,4.69s-1-4.59-.31-6.86c1.9-5.82,3.74-11.53,3.38-17.84-1.43-24.75.27-49.55-.84-74.31-.18-4,1-5.16,4.95-5,7.15.28,14.32.2,21.48,0,3.28-.09,4.15,1.15,4.06,4.3-.33,11.15-1.29,22.38-.41,33.45,1.69,21-4.61,42.63,4.29,63.16.59,1.38-.34,2.3-1.36,3.07a2.15,2.15,0,0,1-3.23-.59c-2.11-3.71-5-7-6.71-11-1.89-4.29-1.53-9-1.66-13.54-.2-7-1.81-14-1.6-21.09s2-13.49-.05-20.47C288.1,209.58,287.67,208.09,287.36,206.61Z" transform="translate(-256.27 -46.2)"/>
      <path class="cls-1" d="M311.83,184.06c.19,3.31.45,6.65-.9,9.79-.92,2.13-2.47,3.15-4.32,1-4.82-5.6-4.46-12.62-4.56-19.3,0-2.64,3-1.35,4.76-1.53,2.13-.21,4.37-.28,4.6,2.75C311.6,179.2,311.69,181.63,311.83,184.06Z" transform="translate(-256.27 -46.2)"/>
      <path class="cls-1" d="M256.6,184c0-1.56-.05-3.12,0-4.68.19-4.87,3.27-6.85,7.83-5.23,1.55.56,1.58,1.59,1.56,2.84-.1,5.88,0,11.79-3.79,16.86-.69.93-.88,2.39-2.49,2.2a3.33,3.33,0,0,1-2.83-2.71A23,23,0,0,1,256.6,184Z" transform="translate(-256.27 -46.2)"/>
      <path class="cls-1" d="M298.63,114.29c-3,4.87-26.32,4.83-29.19-.33-1.24,4.79-5,3.59-8.09,3.52-2.28,0-2.14-1.93-2-3.51,1.07-10.21,2.77-19.8,13.3-25.42,7.57-4,7.28-4.91,1.86-12.25-5.65-7.62-6.28-18.87-.34-25.08,3.2-3.36,6.88-5.73,11.4-4.83a14.54,14.54,0,0,1,11.77,10.68c2.06,7.54.3,14.42-4.8,20.48-4,4.77-3.84,7.67,1.63,10.23,10.88,5.1,13.41,14.64,14.57,25.1.26,2.35.69,5-3,5.49C301.17,119,299.87,118.33,298.63,114.29Z" transform="translate(-256.27 -46.2)"/>
    </g>
    <path class="cls-2" d="M295.22,163.32a5.51,5.51,0,0,0-4.93,1.12,3.43,3.43,0,0,1-4.71.13c-1.47-1-3.52-1.85-4.92-.79-4,3.05-7.21.17-10.35-1.34-2.11-1-3.7-2.3-6.22-1.16-2.71,1.22-3.32-.56-2.33-2.52,2.59-5.16,2.69-10.77,3.65-16.25,1.7-9.71,9.66-16,19.8-15.92s17.83,6.34,19.51,16.22c.9,5.3.93,10.77,3.62,15.71.88,1.63,1,4-2,2.85a5.63,5.63,0,0,0-6.62,1.33C298.42,163.91,296.78,163.61,295.22,163.32Zm-12.15-16.81a3,3,0,0,0-2.81-3,2.93,2.93,0,1,0-.45,5.85C281.62,149.59,282.6,148.36,283.07,146.51Zm10.24.18a2.94,2.94,0,0,0-2.82-3,2.74,2.74,0,0,0-3.12,2.74,2.78,2.78,0,0,0,2.77,3.12C291.94,149.64,293,148.54,293.31,146.69Z" transform="translate(-256.27 -46.2)"/>
    <path class="cls-3" d="M283.07,146.51c-.47,1.85-1.45,3.08-3.26,2.88a2.93,2.93,0,1,1,.45-5.85A3,3,0,0,1,283.07,146.51Z" transform="translate(-256.27 -46.2)"/>
  </g>
  <path class="cls-3" d="M293.31,146.69c-.34,1.85-1.37,2.95-3.17,2.82a2.78,2.78,0,0,1-2.77-3.12,2.74,2.74,0,0,1,3.12-2.74A2.94,2.94,0,0,1,293.31,146.69Z" transform="translate(-256.27 -46.2)"/>
</svg>
