<svg id="圖層_1" data-name="圖層 1" xmlns="http://www.w3.org/2000/svg" xmlns:xlink="http://www.w3.org/1999/xlink" viewBox="0 0 257.54 331.27">
  <defs>
    <style>
      .cls-1 {
        fill: #512188;
      }

      .cls-2 {
        fill: #fff;
      }

      .cls-3 {
        fill: #848485;
      }

      .cls-4 {
        fill: #aeadad;
      }

      .cls-5 {
        fill: #50bcae;
      }

      .cls-6 {
        fill: #f4ee66;
      }

      .cls-7 {
        fill: url(#Degradado_sin_nombre_9);
      }
    </style>
    <linearGradient id="Degradado_sin_nombre_9" data-name="Degradado sin nombre 9" x1="310.15" y1="458.83" x2="306.98" y2="233.78" gradientTransform="translate(-87.28 -14.37) rotate(-15.28)" gradientUnits="userSpaceOnUse">
      <stop offset="0" stop-color="#50bcae" stop-opacity="0"/>
      <stop offset="0.11" stop-color="#50bcae" stop-opacity="0.04"/>
      <stop offset="0.27" stop-color="#50bcae" stop-opacity="0.16"/>
      <stop offset="0.48" stop-color="#50bcae" stop-opacity="0.36"/>
      <stop offset="0.72" stop-color="#50bcae" stop-opacity="0.63"/>
      <stop offset="0.98" stop-color="#50bcae" stop-opacity="0.97"/>
      <stop offset="1" stop-color="#50bcae"/>
    </linearGradient>
  </defs>
  <g>
    <path class="cls-1" d="M281.63,248.89a17.1,17.1,0,0,1,1-4c.79-2.1.57-4.94,2.21-6.66.51-.53-.82-1-1.45-1.21s-1.53-.4-1.69.69c-.74,4.93-4.3,8.46-6.27,12.77-2.42,5.2-4,10.69-5.72,16.14-1.22,2.69-2.49,5.36-3.65,8.08-2.38,5.61-4,11.65-9.61,15.26-1.59,1-3,3.49-4.92,1.83s.35-3.31,1.36-4.66c2.6-3.45,5.13-6.84,6.33-11.14,4.69-16.86,11.49-33,16.4-49.83.78-2.69,1.87-3.21,4.45-2.22,4.71,1.82,9.52,3.4,14.34,4.91,2.22.69,2.52,1.72,1.74,3.79-2.77,7.38-6,14.66-7.91,22.26-3.68,14.44-12.81,27.43-11.55,43.17.08,1.06-.75,1.46-1.61,1.74a1.51,1.51,0,0,1-2-1.13c-.56-3-1.72-5.85-2-8.87-.29-3.29,1-6.33,2-9.42,1.48-4.75,2-9.78,3.74-14.45s4.44-8.55,4.64-13.68C281.45,251,281.5,250,281.63,248.89Z" transform="translate(-179.01 -44.84)"/>
    <path class="cls-1" d="M303.12,239.41c-.62,2.26-1.21,4.55-2.83,6.34-1.1,1.21-2.37,1.54-3.11-.32-1.94-4.84-.11-9.45,1.36-13.93.58-1.78,2.34-.21,3.52.06,1.48.35,3,.81,2.45,2.89C304.08,236.11,303.59,237.76,303.12,239.41Z" transform="translate(-179.01 -44.84)"/>
    <path class="cls-1" d="M266.26,226.73c.36-1,.68-2.09,1.07-3.12,1.24-3.21,3.75-3.83,6.42-1.7.91.72.7,1.42.4,2.25-1.41,3.9-2.7,7.87-6.38,10.39-.67.46-1.13,1.4-2.17.9a2.37,2.37,0,0,1-1.27-2.45A16.24,16.24,0,0,1,266.26,226.73Z" transform="translate(-179.01 -44.84)"/>
    <path class="cls-1" d="M310.23,189.8c-3.12,2.56-18.68-2.78-19.42-6.89-1.92,2.92-4.13,1.27-6.21.51-1.51-.56-1-1.78-.52-2.8,3-6.58,6.37-12.59,14.68-14,6-1,6-1.61,4-7.75-2-6.38.12-14,5.5-16.84,2.91-1.51,5.9-2.25,8.72-.62a10.29,10.29,0,0,1,5.43,9.82,15.23,15.23,0,0,1-7.89,12.59c-3.77,2.27-4.31,4.25-1.24,7.21,6.1,5.88,5.61,12.83,4,20.08-.36,1.63-.68,3.51-3.28,3C310.87,193.49,310.14,192.78,310.23,189.8Z" transform="translate(-179.01 -44.84)"/>
    <path class="cls-1" d="M296.76,221.77a3.88,3.88,0,0,0-3.54-.38,2.42,2.42,0,0,1-3.18-1c-.74-1-1.93-2-3.11-1.66-3.39,1.12-4.85-1.53-6.61-3.26-1.17-1.15-1.94-2.37-3.88-2.19s-2.09-1.13-1-2.22c2.9-2.85,4.25-6.58,6.14-10,3.35-6.09,10.11-8.47,16.86-6.11s10.47,8.3,9.33,15.28c-.61,3.75-1.83,7.41-1.17,11.32.22,1.29-.25,2.91-2,1.45a3.94,3.94,0,0,0-4.72-.62C298.77,222.89,297.74,222.32,296.76,221.77Zm-4.27-14a2.14,2.14,0,0,0-1.2-2.63,2.07,2.07,0,1,0-1.64,3.81C290.81,209.49,291.75,208.9,292.49,207.77Zm6.79,2.45a2.06,2.06,0,0,0-1.19-2.67,1.92,1.92,0,0,0-2.7,1.12,2,2,0,0,0,1.13,2.71A2,2,0,0,0,299.28,210.22Z" transform="translate(-179.01 -44.84)"/>
    <path class="cls-2" d="M292.49,207.77c-.74,1.13-1.68,1.72-2.84,1.18a2.07,2.07,0,1,1,1.64-3.81A2.14,2.14,0,0,1,292.49,207.77Z" transform="translate(-179.01 -44.84)"/>
    <path class="cls-2" d="M299.28,210.22a2,2,0,0,1-2.76,1.16,2,2,0,0,1-1.13-2.71,1.92,1.92,0,0,1,2.7-1.12A2.06,2.06,0,0,1,299.28,210.22Z" transform="translate(-179.01 -44.84)"/>
  </g>
  <g>
    <path class="cls-3" d="M216.54,110.63A52.06,52.06,0,0,1,317,83.19" transform="translate(-179.01 -44.84)"/>
    <ellipse class="cls-4" cx="266.55" cy="96.17" rx="90.34" ry="31.39" transform="translate(-194.93 28.79) rotate(-15.28)"/>
    <ellipse class="cls-5" cx="266.82" cy="97.14" rx="52.06" ry="17.08" transform="translate(-195.18 28.89) rotate(-15.28)"/>
    <g>
      <path class="cls-6" d="M264.33,70.59a3.06,3.06,0,1,1-3.76-2.15A3.06,3.06,0,0,1,264.33,70.59Z" transform="translate(-179.01 -44.84)"/>
      <path class="cls-6" d="M238.55,80.81a3.06,3.06,0,1,1-3.76-2.15A3.06,3.06,0,0,1,238.55,80.81Z" transform="translate(-179.01 -44.84)"/>
      <path class="cls-6" d="M212.1,94.38a3.06,3.06,0,1,1-3.76-2.15A3.06,3.06,0,0,1,212.1,94.38Z" transform="translate(-179.01 -44.84)"/>
      <path class="cls-6" d="M198.27,107.68a3.06,3.06,0,1,1-3.76-2.15A3.06,3.06,0,0,1,198.27,107.68Z" transform="translate(-179.01 -44.84)"/>
      <path class="cls-6" d="M202.71,123.93a3.06,3.06,0,1,1-3.76-2.15A3.06,3.06,0,0,1,202.71,123.93Z" transform="translate(-179.01 -44.84)"/>
      <path class="cls-6" d="M219.7,128a2.3,2.3,0,1,1-2.82-1.62A2.31,2.31,0,0,1,219.7,128Z" transform="translate(-179.01 -44.84)"/>
      <path class="cls-6" d="M241.59,126.8a2.3,2.3,0,1,1-2.82-1.61A2.3,2.3,0,0,1,241.59,126.8Z" transform="translate(-179.01 -44.84)"/>
      <path class="cls-6" d="M261.6,124.51a2.3,2.3,0,0,1-4.43,1.21,2.3,2.3,0,1,1,4.43-1.21Z" transform="translate(-179.01 -44.84)"/>
    </g>
    <g>
      <path class="cls-6" d="M282.86,68.7A3.06,3.06,0,1,0,285,64.94,3.06,3.06,0,0,0,282.86,68.7Z" transform="translate(-179.01 -44.84)"/>
      <path class="cls-6" d="M312.54,67a3.06,3.06,0,1,0,2.15-3.76A3.05,3.05,0,0,0,312.54,67Z" transform="translate(-179.01 -44.84)"/>
      <path class="cls-6" d="M331.21,71.37a3.06,3.06,0,1,0,2.14-3.76A3.07,3.07,0,0,0,331.21,71.37Z" transform="translate(-179.01 -44.84)"/>
      <path class="cls-6" d="M335.64,87.62a3.06,3.06,0,1,0,2.15-3.76A3.07,3.07,0,0,0,335.64,87.62Z" transform="translate(-179.01 -44.84)"/>
      <path class="cls-6" d="M323.09,99.78a2.3,2.3,0,0,0,4.43-1.21,2.3,2.3,0,1,0-4.43,1.21Z" transform="translate(-179.01 -44.84)"/>
      <path class="cls-6" d="M303.62,109.86a2.3,2.3,0,1,0,1.61-2.83A2.31,2.31,0,0,0,303.62,109.86Z" transform="translate(-179.01 -44.84)"/>
      <path class="cls-6" d="M282.27,118.86a2.3,2.3,0,1,0,1.62-2.82A2.3,2.3,0,0,0,282.27,118.86Z" transform="translate(-179.01 -44.84)"/>
    </g>
    <path class="cls-7" d="M436.29,299.49c-.07-.34-.11-.68-.2-1a15.41,15.41,0,0,0-4.23-6.94L313.71,79.32l-97.17,31.31,2.66,238.61a15.57,15.57,0,0,0-.24,8.54c.1.34.23.66.35,1v.3l.1,0c7.47,19.7,59.7,22.85,118.42,6.81s102.1-45.29,98.52-66.06l.09,0Z" transform="translate(-179.01 -44.84)"/>
  </g>
</svg>
