<svg id="圖層_1" data-name="圖層 1" xmlns="http://www.w3.org/2000/svg" viewBox="0 0 339.52 83.46">
  <defs>
    <style>
      .cls-1 {
        fill: #fff;
      }
    </style>
  </defs>
  <g>
    <path class="cls-1" d="M135.59,202.87H200.4v7.54H166.19v40.76h-7.84V242.1l-3.7,6.73H138.87l-4.34-7.74h7.31V210.41h-6.25ZM145.22,169h45.54v31.18H145.22Zm13.13,46v-4.59h-8.68V215Zm0,11.72v-4.79h-8.68v4.79Zm-6,14.37,4.13-7.44h-6.78v7.44Zm30-64.3H153.7v4h28.59ZM153.7,192.48h28.59v-4H153.7Zm33,44.33,3.61,6.62H200.4v7.74H186l-3.6-6.52-3.6,6.52h-8l-4.34-7.74h7.52l3.92-7L171,224h8.68l2.54,4.58,4.24-7.64H167.14v-7.54h32.51Z" transform="translate(-134.53 -167.72)"/>
    <path class="cls-1" d="M258.33,232.83l-4.24,7.54-6.67-12.12v22.92h-7.63V231.71l-5.93,10.8h-3.81L225.92,235h3.5l8.36-15.08H226.66v-7.54h12.92v-7.13h8v7.13h12.92v7.54h-9.32ZM260,196.25v7.34H227.19v-7.34h12.18l6.57-11.82h8.57L248,196.25Zm-.85-20.38v7.34H228v-7.34h11.54v-8.15h8v8.15Zm-20.65,18.75-5.72-10.19h8.69l1.37,2.45Zm30.71,3h22.24v7.74h-6.78v45.85h-8.26V205.32h-7.2v45.85h-9.85l-4.13-7.54h5.94v-68h17.68l4.34-7.95h9.32l-8.68,15.69H269.23Z" transform="translate(-134.53 -167.72)"/>
    <path class="cls-1" d="M319.11,243.43,332,220h9.32l-17.26,31.18h-4.23l-4.35-7.74Zm19.6-73-4.35,7.95H317.74v-7.95Zm-1.17,24.86-4.34,7.95H317.74v-7.95Zm17.26-14.26-4.66,8.46-9.95-18h9.42Zm26.37,9.58v60.52h-10.7l-4.34-7.74h6.78V229H350.25v22.21H342V190.65h15.46V167.82h8.26v22.83Zm-8.26,7.74H350.25v7.34h22.66ZM350.25,221h22.66v-7.34H350.25ZM383,171.49l-10,18.24-4.76-8.46,5.4-9.78Z" transform="translate(-134.53 -167.72)"/>
    <path class="cls-1" d="M409.77,241.7l7.2-13h9.1l-11.33,20.49h-3.49l-4.13-7.44Zm8.36-21.61v-46h16.31l3.49-6.32h9.43l-3.5,6.32h20.55v46Zm38-38.61H426.39V187h29.76Zm0,18.44v-5.61H426.39v5.61Zm-29.76,12.84h29.76v-5.5H426.39Zm26.26,30.47V236h8.05v15.18h-34v-29h8.47v21.1Zm-5.08-3.06L437.3,221.73h9.11l5.71,10.19Zm19.06-11L474,242.61l-4.55,8.26-12-21.71Z" transform="translate(-134.53 -167.72)"/>
  </g>
</svg>
